<svg xmlns="http://www.w3.org/2000/svg" viewBox="0 0 1199.57 808.16"><defs><style>.cls-1{isolation:isolate;}.cls-2,.cls-22,.cls-26,.cls-27,.cls-34,.cls-42,.cls-44{fill:#fff;}.cls-3{fill:#f37258;}.cls-4{fill:#f9f7f9;}.cls-25,.cls-33,.cls-45,.cls-5{fill:none;}.cls-6,.cls-8{fill:#404242;}.cls-6{opacity:0.15;}.cls-7{fill:#e3e3e2;}.cls-22,.cls-24,.cls-25,.cls-26,.cls-27,.cls-33,.cls-44,.cls-45,.cls-7{stroke:#4f5052;}.cls-22,.cls-24,.cls-25,.cls-27,.cls-28,.cls-29,.cls-30,.cls-31,.cls-34,.cls-42,.cls-44,.cls-45,.cls-7{stroke-miterlimit:10;}.cls-24,.cls-25,.cls-33,.cls-34,.cls-7{stroke-width:3px;}.cls-8{opacity:0.6;}.cls-9{fill:#4f5052;}.cls-10{fill:#9d9c9d;}.cls-11{fill:#939393;}.cls-11,.cls-14,.cls-17{mix-blend-mode:multiply;}.cls-12{fill:#ebeff0;}.cls-13{fill:#9b9b9b;}.cls-14{fill:#d1d1d1;}.cls-15{fill:#31485f;}.cls-16{fill:#455c6f;}.cls-17{fill:#828282;}.cls-18{fill:#97cbff;}.cls-19{fill:#ffc2b0;}.cls-20{fill:#343333;}.cls-21{fill:#485865;}.cls-22,.cls-26{stroke-width:5px;}.cls-23{opacity:0.05;}.cls-26,.cls-33{stroke-linecap:round;stroke-linejoin:round;}.cls-27{stroke-width:0.25px;}.cls-28,.cls-30{fill:#a5ffbe;}.cls-28,.cls-29,.cls-30,.cls-31{stroke:#000;}.cls-28,.cls-29{stroke-width:0.75px;}.cls-29,.cls-31{fill:#acd1ae;}.cls-30,.cls-31{stroke-width:0.5px;}.cls-32{fill:#231f20;}.cls-34{stroke:#48484a;}.cls-35{fill:#ea4335;}.cls-36{fill:#fbbc05;}.cls-37{fill:#4285f4;}.cls-38{fill:#34a853;}.cls-39{fill:#ebe9ec;}.cls-40{fill:#99a7d8;}.cls-41{fill:#e0e0e0;}.cls-42{stroke:#fff;}.cls-43{fill:#1a3867;}.cls-44,.cls-45{stroke-width:2px;}.cls-46{fill:#1a3a67;}.cls-47{fill:#ea7e20;}</style></defs><g class="cls-1"><g id="Layer_15" data-name="Layer 15"><polygon class="cls-2" points="703.48 147.79 704.03 177.11 780.46 221.87 780.49 192.22 703.48 147.79"/><polygon class="cls-2" points="703.46 127.08 703.03 140.02 780.46 184.16 780.46 171.56 703.46 127.08"/><polygon class="cls-3" points="1199.95 -2.92 -0.38 -2.92 0.27 807.15 1199.95 806.68 1199.95 -2.92"/><g id="Logo"><path id="Fill-1" class="cls-4" d="M65.72,743.11a9.17,9.17,0,0,0-18.33,0,8.73,8.73,0,0,0,5.94,8.28l-3.6,18.34H63.26l-3.48-18.34a8.85,8.85,0,0,0,5.94-8.28"/><g id="Group-5"><path id="Fill-3" class="cls-4" d="M85.58,743c0-15.43-13-28-28.9-28s-28.89,12.52-28.89,28a27.56,27.56,0,0,0,14.16,24l1.83-12a16.4,16.4,0,0,1-4.42-11.06c0-9.17,7.71-16.63,17.2-16.63s17.19,7.46,17.19,16.63a16.43,16.43,0,0,1-4.42,11.19l1.83,12A27.63,27.63,0,0,0,85.58,743"/></g><path id="Fill-6" class="cls-4" d="M124.27,753.22a10.12,10.12,0,1,0-10.5-10.11,10.3,10.3,0,0,0,10.5,10.11m0,8.22c-10.5,0-19-8.22-19-18.39s8.53-18.4,19-18.4,19,8.22,19,18.4-8.54,18.39-19,18.39"/><path id="Fill-8" class="cls-4" d="M147.28,725.79V760.5a.6.6,0,0,0,.63.63h6.77a.6.6,0,0,0,.63-.63V747.09h7.27s10.12-.5,10.12-11.06-10.24-11-10.24-11H147.85C147.54,725,147.28,725.28,147.28,725.79Zm13.22,4.67a5.19,5.19,0,0,1,5.31,5.57,5.28,5.28,0,0,1-5.31,5.56h-5.31V730.84c0-.5.37-.38.37-.38Z"/><path id="Fill-10" class="cls-2" d="M276.77,725.79V760.5a.6.6,0,0,0,.63.63h6.76a.6.6,0,0,0,.63-.63V747.09h7.28s10.11-.5,10.11-11.06-10.24-10.94-10.24-10.94H277.33C277.14,725,276.77,725.28,276.77,725.79ZM290,730.46a5.19,5.19,0,0,1,5.31,5.57,5.28,5.28,0,0,1-5.31,5.56h-5.31V730.84c0-.5.38-.38.38-.38Z"/><path id="Fill-12" class="cls-4" d="M176.81,760.43a.59.59,0,0,0,.63.63H202a.6.6,0,0,0,.64-.63v-5.06a.6.6,0,0,0-.64-.63H185.47a.59.59,0,0,1-.63-.63v-8a.59.59,0,0,1,.63-.63h11a.59.59,0,0,0,.63-.63v-5.06a.59.59,0,0,0-.63-.63h-11a.59.59,0,0,1-.63-.63v-6.77a.59.59,0,0,1,.63-.63H202a.6.6,0,0,0,.64-.63v-5.06a.6.6,0,0,0-.64-.63H177.57a.6.6,0,0,0-.64.63v34.9h-.12v.06Z"/><path id="Fill-14" class="cls-4" d="M233.65,725h-5.19a.59.59,0,0,0-.63.63v21.56L214.62,725h-6.45a.81.81,0,0,0-.76.69v34.71a.59.59,0,0,0,.63.63h5.19a.6.6,0,0,0,.63-.63V735.52l15,25.42v.12h4.56a.59.59,0,0,0,.63-.63V725.66a.5.5,0,0,0-.44-.63"/><path id="Fill-16" class="cls-2" d="M333.48,725h-5.19a.59.59,0,0,0-.63.63v21.56L314.45,725H308a.71.71,0,0,0-.76.69v34.59a.59.59,0,0,0,.63.63h5.19a.59.59,0,0,0,.63-.63V735.52l15.17,25.42v.12h4.55a.6.6,0,0,0,.64-.63V725.66a.59.59,0,0,0-.57-.63"/><path id="Fill-18" class="cls-2" d="M258.24,760.56l13.21-34.71a.62.62,0,0,0-.63-.82h-5.94a.68.68,0,0,0-.63.38l-8.66,22.76-8.67-22.76a.68.68,0,0,0-.63-.38h-5.94a.66.66,0,0,0-.63.82l13.34,34.71a.69.69,0,0,0,.63.38h4a.69.69,0,0,0,.57-.38"/></g><path class="cls-2" d="M344.46,728.76a3.15,3.15,0,0,1-3.23,3.16,3.07,3.07,0,0,1-3.22-3.16,3.12,3.12,0,0,1,3.22-3A3.17,3.17,0,0,1,344.46,728.76Zm-5.69,0a2.38,2.38,0,0,0,2.46,2.4,2.41,2.41,0,0,0,0-4.81A2.42,2.42,0,0,0,338.77,728.76Zm2,1.58H340v-3c.25,0,.76-.12,1.26-.12a2.09,2.09,0,0,1,1.14.25,1,1,0,0,1,.26.69.74.74,0,0,1-.64.7h0a1.38,1.38,0,0,1,.64.7c.12.5.12.63.25.69h-.76c-.13-.13-.13-.38-.25-.69s-.26-.51-.64-.51h-.37v1.2h-.13Zm0-1.71h.38c.38,0,.76-.13.76-.51a.58.58,0,0,0-.64-.5h-.37v1l-.13.06Z"/><rect class="cls-5" x="0.53" y="656.87" width="379.51" height="137.4"/><polygon class="cls-6" points="736.6 205.83 754.76 216.91 780.65 211.88 831.78 182.36 694.92 103.35 736.6 205.83"/><path class="cls-7" d="M626.5,537.92,446.88,641.62S622.22,745.32,742,808.16c135,0,456,1,457.6,0,2.2-1.34,0-280.12,0-433.2l-145.41-84Z"/><ellipse class="cls-7" cx="243.02" cy="390.53" rx="111.54" ry="64.4"/><polygon class="cls-8" points="1045.43 560.32 1096.75 561.06 1190.84 506.74 1086.88 446.67 1045.43 560.32"/><path class="cls-2" d="M273.49,397.68a.53.53,0,0,1-.27-.08l-5.2-3.27a.49.49,0,0,1-.24-.42V384a.5.5,0,0,1,.25-.43l8.56-4.94a.43.43,0,0,1,.25-.07.47.47,0,0,1,.25.07l9.08,5.29a.5.5,0,0,1,.22.62L283,392.79a.47.47,0,0,1-.23.25l-9,4.58A.49.49,0,0,1,273.49,397.68Z"/><path class="cls-9" d="M276.84,379.09l9.08,5.29-3.41,8.22-9,4.58-5.21-3.27V384l8.56-4.94m0-1a1,1,0,0,0-.5.14l-8.56,4.93a1,1,0,0,0-.5.87v9.88a1,1,0,0,0,.47.84L273,398a.92.92,0,0,0,.53.16,1,1,0,0,0,.45-.11l9-4.58a1,1,0,0,0,.47-.51l3.42-8.22a1,1,0,0,0-.42-1.24l-9.09-5.29a1,1,0,0,0-.5-.14Z"/><polygon class="cls-2" points="268.41 393.84 268.41 384.24 274.25 387.36 271.32 395.67 268.41 393.84"/><path class="cls-9" d="M268.53,384.45l5.56,3-2.84,8.06-2.72-1.71v-9.32m-.25-.42v9.88l3.1,1.94,3-8.55L268.28,384Z"/><polygon class="cls-2" points="268.54 384.03 276.84 379.24 285.6 384.33 274.42 387.17 268.54 384.03"/><path class="cls-9" d="M276.84,379.38l8.43,4.91L274.43,387l-5.63-3,8-4.64m0-.29L268.28,384l6.12,3.27,11.52-2.92-9.08-5.29Z"/><path d="M506.47,410a.05.05,0,0,0,0-.1.05.05,0,1,0,0,.1Z"/><path d="M163.94,400.27l-1.59-4.12-.4-.24v3.21l-1.78-1v-8.48l3,1.75a5.84,5.84,0,0,1,1.47,1.2,5,5,0,0,1,.91,1.48,4.32,4.32,0,0,1,.3,1.56,1.69,1.69,0,0,1-.44,1.31,1.3,1.3,0,0,1-1.29.15l1.75,4.34Zm-2-5.76,1.1.64q.52.3.78.18c.17-.09.25-.31.25-.66a1.84,1.84,0,0,0-.25-.94,2,2,0,0,0-.78-.73l-1.1-.64Z"/><path d="M168.56,396.08v1.78l2.48,1.43v1.55l-2.48-1.43v1.88l2.79,1.61v1.65l-4.57-2.64v-8.49l4.57,2.64v1.64Z"/><path d="M180.62,401.48v8.42l-1.77-1v-5.26L177.27,408l-1.54-.89-1.59-6.19v5.28l-1.78-1v-8.42l2.17,1.25,2,7,1.94-4.74Z"/><path d="M187.23,405.65a8.63,8.63,0,0,1,1.33,2.32,6.92,6.92,0,0,1,.49,2.52,3.36,3.36,0,0,1-.49,2,1.71,1.71,0,0,1-1.34.78,3.28,3.28,0,0,1-1.88-.52,6.82,6.82,0,0,1-1.87-1.64,8.57,8.57,0,0,1-1.34-2.33,7,7,0,0,1-.5-2.53,3.35,3.35,0,0,1,.5-1.95,1.75,1.75,0,0,1,1.34-.78,3.27,3.27,0,0,1,1.87.53A6.91,6.91,0,0,1,187.23,405.65Zm-3.27.12a1.69,1.69,0,0,0-.52,1.48,4.25,4.25,0,0,0,.52,2.08,3.61,3.61,0,0,0,1.38,1.46c.58.33,1,.38,1.38.14a1.7,1.7,0,0,0,.52-1.48,4.35,4.35,0,0,0-.51-2.07,3.5,3.5,0,0,0-1.39-1.46Q184.47,405.41,184,405.77Z"/><path d="M195.33,409.91v1.63l-2-1.15v6.85l-1.78-1v-6.86l-2-1.14v-1.63Z"/><path d="M197.85,413v1.77l2.49,1.44v1.54l-2.49-1.43v1.88l2.8,1.62v1.64l-4.57-2.64v-8.48l4.57,2.64v1.63Z"/><path d="M205.46,415.76v4.89a3.12,3.12,0,0,0,.33,1.47,2.35,2.35,0,0,0,1,1c.42.24.73.27.95.1a1.35,1.35,0,0,0,.33-1.09v-4.9l1.78,1v4.89a3.18,3.18,0,0,1-.41,1.79,1.32,1.32,0,0,1-1.11.6,3.23,3.23,0,0,1-1.58-.5,5.92,5.92,0,0,1-1.56-1.31,6.12,6.12,0,0,1-1.06-1.85,6.41,6.41,0,0,1-.38-2.25v-4.89Z"/><path d="M216,429.15a1.05,1.05,0,0,1-.87.4,3,3,0,0,1-1.4-.47,6.2,6.2,0,0,1-2-1.88,4.65,4.65,0,0,1-.88-2.44l1.89,1.09a2.21,2.21,0,0,0,.3.93,1.92,1.92,0,0,0,.65.65.57.57,0,0,0,.54.09.47.47,0,0,0,.2-.46,1.33,1.33,0,0,0-.18-.65,4.24,4.24,0,0,0-.46-.61c-.18-.2-.43-.45-.74-.76-.47-.45-.85-.85-1.14-1.19a5.07,5.07,0,0,1-.76-1.21,3.58,3.58,0,0,1-.32-1.51,1.6,1.6,0,0,1,.33-1.11,1.08,1.08,0,0,1,.92-.32,3.29,3.29,0,0,1,1.35.48,5.74,5.74,0,0,1,1.95,1.8,4.8,4.8,0,0,1,.81,2.32l-1.92-1.11a2.08,2.08,0,0,0-.26-.82,1.61,1.61,0,0,0-.58-.58.59.59,0,0,0-.5-.1c-.13.06-.2.21-.2.46a1.16,1.16,0,0,0,.18.6,2.66,2.66,0,0,0,.43.6l.74.76a15.24,15.24,0,0,1,1.16,1.22,5.36,5.36,0,0,1,.77,1.23,3.64,3.64,0,0,1,.32,1.53A1.71,1.71,0,0,1,216,429.15Z"/><path d="M219,425.22V427l2.49,1.44V430L219,428.54v1.89l2.8,1.61v1.64L217.25,431v-8.48l4.57,2.64v1.63Z"/><path d="M226.6,436.44,225,432.32l-.41-.23v3.2l-1.77-1v-8.49l3,1.75a5.89,5.89,0,0,1,1.48,1.2,5.11,5.11,0,0,1,.9,1.48,4.32,4.32,0,0,1,.3,1.56,1.68,1.68,0,0,1-.44,1.32,1.28,1.28,0,0,1-1.28.14l1.74,4.35Zm-2-5.76,1.11.64q.53.3.78.18c.16-.08.24-.3.24-.65a1.81,1.81,0,0,0-.25-.94,2.11,2.11,0,0,0-.77-.74l-1.11-.63Z"/><path d="M744.05,496.06a2,2,0,0,1,1.19,1.61l-1.88,1.09a.86.86,0,0,0-.64-.55,1.46,1.46,0,0,0-1,.25,3.24,3.24,0,0,0-1.26,1.39,4.38,4.38,0,0,0-.48,2,1.82,1.82,0,0,0,.48,1.48,1.07,1.07,0,0,0,1.26-.07,3.46,3.46,0,0,0,1-.93,4.16,4.16,0,0,0,.64-1.28l1.88-1.09a7.73,7.73,0,0,1-1.19,3,7,7,0,0,1-2.32,2.2,3.28,3.28,0,0,1-1.88.54,1.58,1.58,0,0,1-1.25-.81,3.78,3.78,0,0,1-.45-2,7.3,7.3,0,0,1,.45-2.5,7.76,7.76,0,0,1,1.25-2.25,6.47,6.47,0,0,1,1.88-1.63A2.84,2.84,0,0,1,744.05,496.06Z"/><path d="M751.62,491.35a1.68,1.68,0,0,1,1.33.78,3.35,3.35,0,0,1,.49,1.95,7,7,0,0,1-.49,2.53,8.84,8.84,0,0,1-1.34,2.33,6.85,6.85,0,0,1-1.88,1.64,3.28,3.28,0,0,1-1.88.52,1.71,1.71,0,0,1-1.34-.78,3.36,3.36,0,0,1-.49-2,6.92,6.92,0,0,1,.49-2.52,8.78,8.78,0,0,1,1.34-2.32,6.85,6.85,0,0,1,1.88-1.64A3.25,3.25,0,0,1,751.62,491.35Zm-3.28,3.89a4.36,4.36,0,0,0-.51,2.08,1.72,1.72,0,0,0,.51,1.48c.35.24.81.19,1.39-.14a3.54,3.54,0,0,0,1.38-1.46,4.24,4.24,0,0,0,.52-2.07,1.72,1.72,0,0,0-.51-1.48c-.35-.25-.81-.2-1.39.14A3.67,3.67,0,0,0,748.34,495.24Z"/><path d="M762.7,484.58V493l-1.78,1v-5.27l-1.58,6.18-1.53.89-1.59-4.36v5.28l-1.78,1v-8.43l2.17-1.25,2,4.72,1.94-7Z"/><path d="M765.7,488.3v3l-1.77,1v-8.48l2.88-1.67c.87-.5,1.53-.63,2-.4s.69.78.69,1.63a4.48,4.48,0,0,1-.31,1.58,5.33,5.33,0,0,1-.91,1.5,5.55,5.55,0,0,1-1.46,1.2Zm2-3.88c0-.74-.36-.91-1.07-.5l-.91.52v2.21l.91-.52A1.9,1.9,0,0,0,767.68,484.42Z"/><path d="M774.91,484.41,772.16,486l-.46,1.81-1.87,1.08,2.69-10,2.05-1.18,2.69,6.87-1.89,1.09Zm-.46-1.3-.91-2.59-.93,3.65Z"/><path d="M784.47,480.44l-1.78,1-3-3.49v5.21l-1.78,1v-8.49l1.78-1,3,3.53V473l1.78-1Z"/><path d="M792.05,467.58l-2.55,7.13v2.82l-1.79,1v-2.82l-2.54-4.2,2-1.17,1.42,2.64,1.41-4.28Z"/><path d="M801.34,470.7l-1.78,1-3-3.49v5.21l-1.78,1V466l1.78-1,3,3.54v-5.26l1.78-1Z"/><path d="M804.34,462.11v1.78l2.49-1.44V464l-2.49,1.44v1.88l2.8-1.61v1.64L802.56,470v-8.48l4.58-2.64v1.63Z"/><path d="M813.43,455.24v1.63l-2,1.15v6.85l-1.79,1v-6.85l-2,1.14v-1.63Z"/><path d="M824.16,449l-1.76,9.5-2.2,1.27-1.17-5-1.19,6.36-2.2,1.27L813.88,455l1.94-1.11.94,5.59,1.29-6.88,1.94-1.13,1.29,5.4,1-6.69Z"/><path d="M830.47,445.82a1.72,1.72,0,0,1,1.34.78,3.35,3.35,0,0,1,.49,1.95,7.19,7.19,0,0,1-.49,2.53,8.45,8.45,0,0,1-1.35,2.33,6.82,6.82,0,0,1-1.87,1.64,3.3,3.3,0,0,1-1.88.53,1.76,1.76,0,0,1-1.34-.78,3.41,3.41,0,0,1-.49-2,6.93,6.93,0,0,1,.49-2.53,8.78,8.78,0,0,1,1.34-2.32,6.85,6.85,0,0,1,1.88-1.64A3.24,3.24,0,0,1,830.47,445.82Zm-3.27,3.89a4.36,4.36,0,0,0-.51,2.08,1.72,1.72,0,0,0,.51,1.48c.34.24.81.2,1.39-.14a3.68,3.68,0,0,0,1.38-1.46,4.24,4.24,0,0,0,.52-2.07,1.69,1.69,0,0,0-.52-1.48c-.34-.24-.8-.2-1.38.14A3.6,3.6,0,0,0,827.2,449.71Z"/><path d="M837.07,450.07l-1.59-2.29-.41.24v3.2l-1.77,1v-8.49l3-1.75a3.15,3.15,0,0,1,1.48-.5,1,1,0,0,1,.9.43,2.1,2.1,0,0,1,.3,1.21,4.17,4.17,0,0,1-.44,1.83,5.16,5.16,0,0,1-1.28,1.63l1.74,2.33Zm-2-3.46,1.1-.63a2.11,2.11,0,0,0,.78-.72,1.76,1.76,0,0,0,.25-.94c0-.34-.08-.55-.25-.65s-.43,0-.78.16l-1.1.64Z"/><path d="M843.37,442.1l3,2.62L844.18,446l-2.5-2.37v3.81l-1.78,1V440l1.78-1v3.73l2.52-5.18,2.13-1.23Z"/><path d="M403.86,221.1l2.6-1.5v.85l-3.55,2.05V214l.95-.55Z"/><path d="M412.61,208.88a1.65,1.65,0,0,1,1.29.8,3.61,3.61,0,0,1,.46,2,7.21,7.21,0,0,1-.46,2.51,8,8,0,0,1-1.29,2.28,6.44,6.44,0,0,1-1.83,1.61,3.18,3.18,0,0,1-1.85.51,1.64,1.64,0,0,1-1.29-.79,3.61,3.61,0,0,1-.47-2,7.23,7.23,0,0,1,.47-2.51,8.2,8.2,0,0,1,1.29-2.29,6.79,6.79,0,0,1,1.85-1.61A3.08,3.08,0,0,1,412.61,208.88Zm-3.19,2.71a5.94,5.94,0,0,0-1.27,3.65,3,3,0,0,0,.34,1.55,1.16,1.16,0,0,0,.93.62,2.34,2.34,0,0,0,1.36-.38,4.82,4.82,0,0,0,1.35-1.18,6.09,6.09,0,0,0,.93-1.7,5.62,5.62,0,0,0,.34-1.94,3,3,0,0,0-.34-1.57,1.19,1.19,0,0,0-.93-.61,2.29,2.29,0,0,0-1.35.38A4.73,4.73,0,0,0,409.42,211.59Z"/><path d="M421.1,204.21a1.88,1.88,0,0,1,1.21,1.39l-1,.58a1.24,1.24,0,0,0-.91-.82,2.24,2.24,0,0,0-1.52.38,4.5,4.5,0,0,0-1.29,1.15,5.67,5.67,0,0,0-.89,1.67,5.77,5.77,0,0,0-.33,1.94,3,3,0,0,0,.33,1.55,1.19,1.19,0,0,0,.89.63,2.06,2.06,0,0,0,1.29-.34A4.66,4.66,0,0,0,420.4,211a5.75,5.75,0,0,0,.91-1.86l1-.57a8,8,0,0,1-1.21,2.78,6.85,6.85,0,0,1-2.21,2,3.09,3.09,0,0,1-1.82.5,1.59,1.59,0,0,1-1.23-.81,3.71,3.71,0,0,1-.45-2,7.25,7.25,0,0,1,.45-2.5,7.5,7.5,0,0,1,1.23-2.24,6.27,6.27,0,0,1,1.82-1.6A2.91,2.91,0,0,1,421.1,204.21Z"/><path d="M427.86,206.13,424.64,208,424,210.3l-1,.59,2.71-9.87,1.07-.62,2.71,6.75-1,.59Zm-.26-.69-1.35-3.5L424.91,207Z"/><path d="M431.4,205.2l2.6-1.5v.85l-3.55,2v-8.46l.95-.55Z"/><path d="M438.47,198.56V202l-.94.55v-8.46l2.33-1.34c.84-.49,1.46-.62,1.88-.41s.62.71.62,1.49a4.15,4.15,0,0,1-.64,2.23,5.22,5.22,0,0,1-1.86,1.74Zm2.55-2.8a2.76,2.76,0,0,0,.38-1.41c0-.53-.13-.86-.38-1s-.67,0-1.25.31l-1.3.75v3.22l1.3-.75A3.4,3.4,0,0,0,441,195.76Z"/><path d="M447.35,196.84l-1.91-2.35-1,.59v3.46l-1,.54v-8.46l2.41-1.39c.84-.48,1.46-.61,1.88-.39s.62.71.62,1.47a4,4,0,0,1-.5,1.95,4.89,4.89,0,0,1-1.44,1.62l2,2.34Zm-2.94-2.55,1.38-.8a2.83,2.83,0,0,0,1.61-2.56c0-1.09-.53-1.32-1.61-.7l-1.38.8Z"/><path d="M450.47,186.58V195l-1,.55v-8.46Z"/><path d="M457.68,190.88l-.95.54-3.8-4.49v6.69l-.95.54V185.7l.95-.54,3.8,4.5V183l.95-.54Z"/><path d="M463.69,179v.89L461.62,181v7.57l-.95.55v-7.57l-2.06,1.19v-.89Z"/><path d="M465.57,178.75v2.89l2.78-1.61v.85l-2.78,1.6v3l3.09-1.78v.88l-4,2.34v-8.46l4-2.34V177Z"/><path d="M473.77,181.59l-1.91-2.35-1,.59v3.46l-.95.54v-8.46l2.41-1.39c.83-.48,1.46-.61,1.87-.39s.63.71.63,1.47a4,4,0,0,1-.5,1.95,5.14,5.14,0,0,1-1.45,1.62l2,2.34ZM470.83,179l1.38-.8a2.85,2.85,0,0,0,1.61-2.56c0-1.09-.54-1.32-1.61-.7l-1.38.8Z"/><path class="cls-2" d="M355.42,273.47a1,1,0,0,1-.5-.13l-29.17-16.85a1,1,0,0,1,0-1.73l10.33-5.93-.79-.46a5.41,5.41,0,0,1-.65-.45l-.05,0h0a9.44,9.44,0,0,1-3.51-6.84V222.87a3.44,3.44,0,0,1,2-3.45l13.38-7.68c0-.06.07-.3.07-.3a.74.74,0,0,1,0-.14,5.64,5.64,0,0,1,2.4-3.19,2.88,2.88,0,0,1,1.42-.41,2.13,2.13,0,0,1,1.32.45l.41.34,2.75-1.57,3.51-8.86a1,1,0,0,1,.6-.58,1.26,1.26,0,0,1,.33,0h.07a1,1,0,0,1,.54-.45,1.26,1.26,0,0,1,.33,0l.33-.84a1,1,0,0,1,.44-.5l.9-.51a1,1,0,0,1,.49-.12,1,1,0,0,1,.49.13l28.85,16.4a1,1,0,0,1,.45,1.21l-3.76,10.37,10.45,6a8.6,8.6,0,0,1,2.94,3l0,0a8.56,8.56,0,0,1,1.27,4.23v18.35a4.45,4.45,0,0,1,0,.53s0,.09,0,.12l-.06.38s0,.08,0,.11a3.47,3.47,0,0,1-.1.37.32.32,0,0,1,0,.09,2.31,2.31,0,0,1-.14.35l-.06.11c0,.05-.1.18-.17.3a3,3,0,0,1-1,.9l-23.35,13.41a3,3,0,0,1-1.47.38h0a4.27,4.27,0,0,1-2.16-.65l-7.33-4.26-11.3,6.43A1,1,0,0,1,355.42,273.47Z"/><path class="cls-9" d="M362.39,196l28.85,16.4-4,11.16L398.37,230a7.6,7.6,0,0,1,2.6,2.73h0a7.68,7.68,0,0,1,1.13,3.72v18.35c0,.15,0,.3,0,.44l0,.08a2.91,2.91,0,0,1,0,.31.64.64,0,0,1,0,.07,2.45,2.45,0,0,1-.08.29s0,0,0,0a2.36,2.36,0,0,1-.12.28v0a1.82,1.82,0,0,1-.15.27h0a1.82,1.82,0,0,1-.66.61h0l-23.29,13.37a1.94,1.94,0,0,1-1,.25,3.33,3.33,0,0,1-1.66-.51l-.47-.27h0l-7.36-4.28-11.79,6.71-29.17-16.84,11.83-6.8-2.28-1.33a4.35,4.35,0,0,1-.57-.38l0,0h0a8.39,8.39,0,0,1-3.12-6V222.87a2.42,2.42,0,0,1,1.41-2.54h0l13.84-8,0-.21c0-.12.05-.25.08-.37l0-.15h0a4.63,4.63,0,0,1,2-2.67,1.86,1.86,0,0,1,.92-.28,1.08,1.08,0,0,1,.69.23h0l.92.76h0l3.65-2.1,3.64-9.18.61.34.13-.34.2-.5.56.31.7-1.78.9-.5m0-2a2,2,0,0,0-1,.25l-.89.5a2,2,0,0,0-.89,1l-.13.35a1.8,1.8,0,0,0-.64.41.86.86,0,0,0-.23.06,2,2,0,0,0-1.2,1.15L354,206.22l-1.84,1.07a3.05,3.05,0,0,0-1.83-.59,3.82,3.82,0,0,0-1.91.54A6.57,6.57,0,0,0,345.6,211l0,.1-12.94,7.42a4.42,4.42,0,0,0-2.55,4.36v18.18a10.32,10.32,0,0,0,3.79,7.54,1.3,1.3,0,0,0,.23.18l0,0-8.88,5.09a2,2,0,0,0,0,3.47l29.17,16.84a2,2,0,0,0,1,.27,2.06,2.06,0,0,0,1-.26l10.79-6.14,6.36,3.69.48.28a5.25,5.25,0,0,0,2.66.78,3.94,3.94,0,0,0,2-.52L401.92,259l.11-.06a3.84,3.84,0,0,0,1.24-1.17l0,0a5,5,0,0,0,.26-.46.25.25,0,0,1,0-.07,3.66,3.66,0,0,0,.18-.46l.05-.12c0-.13.08-.28.11-.43a.83.83,0,0,0,0-.15c0-.14,0-.29.07-.44s0-.11,0-.17a6.13,6.13,0,0,0,0-.62V236.42a9.65,9.65,0,0,0-1.37-4.68l-.07-.11a9.49,9.49,0,0,0-3.29-3.39l-9.72-5.61,3.47-9.59a2,2,0,0,0-.9-2.42l-28.84-16.4a2,2,0,0,0-1-.26Z"/><polygon class="cls-8" points="377.67 270.57 395.49 270.57 422.73 254.95 390.93 236.26 377.67 270.57"/><g id="Printer"><path class="cls-2" d="M400,257.3a3.31,3.31,0,0,1-1.6-.49l-19.67-11.44-1.11.64-43.92-25.68,22.55-12.94a1.75,1.75,0,0,1,1.2-.44,3.22,3.22,0,0,1,1.59.48l39.23,22.65a8.15,8.15,0,0,1,3.66,6.34v18.35a3,3,0,0,1-.54,1.88,1.73,1.73,0,0,1-1.39.65Z"/><path class="cls-9" d="M357.49,207.07a3.1,3.1,0,0,1,1.53.47l39.23,22.65a7.31,7.31,0,0,1,2.5,2.63h0a7.27,7.27,0,0,1,1.1,3.59v18.35c0,1.48-.7,2.4-1.81,2.4a3.1,3.1,0,0,1-1.53-.47l-19.62-11.4-.12-.07-.13.07-1,.56L334,220.33l22.36-12.83,0,0h0a1.59,1.59,0,0,1,1.1-.4m0-.25a1.86,1.86,0,0,0-1.26.46l-22.74,13.05,44.17,25.82,1.11-.63,19.61,11.39a3.33,3.33,0,0,0,1.66.51c1.22,0,2.06-1,2.06-2.65V236.42A7.68,7.68,0,0,0,401,232.7h0a7.6,7.6,0,0,0-2.6-2.73l-39.23-22.65a3.35,3.35,0,0,0-1.65-.5Z"/><path class="cls-2" d="M333.74,220.33l22.55-12.94a1.75,1.75,0,0,1,1.2-.44,3.22,3.22,0,0,1,1.59.48l39.23,22.65a7.41,7.41,0,0,1,2.49,2.57L377.66,246Z"/><path class="cls-9" d="M357.49,207.07a3.1,3.1,0,0,1,1.53.47l39.23,22.65a7.23,7.23,0,0,1,2.37,2.42l-22.95,13.25L334,220.33l22.36-12.83,0,0h0a1.59,1.59,0,0,1,1.1-.4m0-.25a1.86,1.86,0,0,0-1.26.46l-22.74,13.05,44.17,25.82L401,232.7h0a7.6,7.6,0,0,0-2.6-2.73l-39.23-22.65a3.35,3.35,0,0,0-1.65-.5Z"/><path class="cls-10" d="M377.79,246.22l23.13-13.35a7.36,7.36,0,0,1,1.05,3.55v18.35a2.46,2.46,0,0,1-1.06,2.31l-.07,0v0l-23,13.22Z"/><path class="cls-9" d="M400.88,233a7.3,7.3,0,0,1,1,3.38v18.35a2.35,2.35,0,0,1-1,2.2l-.13.08h0l-22.81,13.09V246.3l23-13.26m.09-.34-23.31,13.45v24.42L401,257.2h0a2.58,2.58,0,0,0,1.13-2.42V236.42A7.68,7.68,0,0,0,401,232.7Z"/><path class="cls-10" d="M376.7,270.69a3.2,3.2,0,0,1-1.6-.49l-39.24-22.8a8.11,8.11,0,0,1-3.65-6.35V222.87c0-1.56.74-2.53,1.94-2.53a3.27,3.27,0,0,1,1.59.49L375,243.48a8.09,8.09,0,0,1,3.66,6.34v18.35a3,3,0,0,1-.54,1.88,1.72,1.72,0,0,1-1.39.64Z"/><path class="cls-9" d="M334.15,220.47a3.13,3.13,0,0,1,1.53.47l39.23,22.65a8,8,0,0,1,3.6,6.23v18.35c0,1.48-.69,2.4-1.81,2.4a3,3,0,0,1-1.53-.48l-39.25-22.8a8,8,0,0,1-3.59-6.24V222.87c0-1.48.7-2.4,1.82-2.4m0-.25c-1.22,0-2.07,1-2.07,2.65v18.18a8.26,8.26,0,0,0,3.72,6.45L375,270.31a3.33,3.33,0,0,0,1.66.51c1.22,0,2.06-1,2.06-2.65V249.82a8.27,8.27,0,0,0-3.72-6.45L335.8,220.72a3.35,3.35,0,0,0-1.65-.5Z"/><path class="cls-10" d="M335.2,247.1V234.31a18.78,18.78,0,0,1,2.07-8.57l1.65-3.2,32.34,18.73,2.27,6.5a18.71,18.71,0,0,1,1,6.16V270Z"/><polygon class="cls-11" points="336.35 246.15 373.54 268.1 373.54 266.2 336.35 244.14 336.35 246.15"/><polygon class="cls-12" points="341.22 247.03 326.25 255.63 355.42 272.47 370.06 264.13 341.22 247.03"/><polygon class="cls-13" points="333.44 256.61 332.96 256.88 355.32 269.77 355.8 269.5 333.44 256.61"/><polygon class="cls-13" points="334.73 255.78 334.26 256.05 356.62 268.95 357.09 268.68 334.73 255.78"/><polygon class="cls-13" points="336.03 254.95 335.55 255.22 357.91 268.12 358.39 267.85 336.03 254.95"/><polygon class="cls-13" points="337.32 254.13 336.85 254.4 359.2 267.29 359.68 267.02 337.32 254.13"/><polygon class="cls-13" points="338.62 253.3 338.14 253.57 360.5 266.46 360.98 266.19 338.62 253.3"/><polygon class="cls-13" points="352.95 259.99 352.47 260.26 361.79 265.64 362.27 265.37 352.95 259.99"/><polygon class="cls-13" points="353.96 259.27 353.49 259.54 362.81 264.92 363.29 264.64 353.96 259.27"/><polygon class="cls-14" points="337.59 246.15 337.59 246.15 371.92 266.35 372.85 265.79 338.67 245.52 337.59 246.15"/><polygon class="cls-4" points="342.7 220.39 359.47 210.89 391.91 229.62 374.79 238.98 342.7 220.39"/><path class="cls-9" d="M359.47,211l32.19,18.59-16.87,9.22L343,220.39,359.47,211m0-.28-17,9.64,32.34,18.74,17.38-9.5-32.7-18.88Z"/><polygon class="cls-15" points="391.24 212.36 389.88 212.36 382.27 233.51 383.72 233.15 391.24 212.36"/><path class="cls-2" d="M346.5,216.86l1-4.66c0-.13.05-.25.08-.37l0-.15a4.51,4.51,0,0,1,1.9-2.59,1.67,1.67,0,0,1,.86-.26,1,1,0,0,1,.61.2l.92.76,2.75,2.46-6.51,3.55-.88,1.65Z"/><path class="cls-9" d="M350.37,209a.79.79,0,0,1,.53.18l.91.75h0l2.62,2.34-6.35,3.47-.07,0,0,.07-.76,1.46-.58-.45,1-4.6c0-.12.05-.23.08-.36l0-.1v0a4.38,4.38,0,0,1,1.84-2.52,1.68,1.68,0,0,1,.8-.25h0m0-.25a1.86,1.86,0,0,0-.92.28,4.63,4.63,0,0,0-2,2.67h0l0,.15c0,.12-.06.25-.08.37l-1,4.75.93.72.9-1.73,6.66-3.64L352,209.69l-.92-.76h0a1.08,1.08,0,0,0-.69-.23Z"/><path class="cls-10" d="M348.43,212.92c0-.13.05-.25.08-.37l0-.15a4.58,4.58,0,0,1,1.89-2.59,1.47,1.47,0,0,1,.76-.23,1.77,1.77,0,0,1,1.06.46c.49.35,2.76,2.41,3.32,2.93l-8.1,4.43Z"/><path class="cls-9" d="M351.2,209.71a1.69,1.69,0,0,1,1,.43c.45.33,2.46,2.15,3.18,2.8l-7.71,4.22.9-4.23c0-.12.05-.23.08-.36l0-.1v0a4.38,4.38,0,0,1,1.84-2.52,1.3,1.3,0,0,1,.69-.21m0-.25a1.68,1.68,0,0,0-.82.24,4.66,4.66,0,0,0-1.95,2.67h0l0,.15c0,.12-.06.25-.08.37l-1,4.75,8.5-4.65s-2.89-2.64-3.46-3.06a2,2,0,0,0-1.14-.47Z"/><path class="cls-16" d="M350.61,210.36a2.87,2.87,0,0,0-1.29,2.24c0,.83.58,1.16,1.29.75a2.9,2.9,0,0,0,1.29-2.25C351.9,210.28,351.32,210,350.61,210.36Z"/><polygon class="cls-2" points="354.58 215.97 362.45 196.14 391.08 212.42 383.65 232.97 354.58 215.97"/><path class="cls-9" d="M362.52,196.32l28.41,16.15-7.35,20.31-28.84-16.87,7.78-19.59m-.13-.36-8,20.06,29.29,17.13,7.52-20.79L362.39,196Z"/><polygon class="cls-2" points="389.88 212.23 361.75 196.46 362.39 196.1 390.76 212.23 389.88 212.23"/><path class="cls-9" d="M362.39,196.24l27.9,15.87H390L362,196.46l.39-.22m0-.28-.9.5,28.39,15.9h1.36L362.39,196Z"/><polygon class="cls-10" points="353.66 216.56 361.56 196.64 389.73 212.42 382.2 233.33 353.66 216.56"/><path class="cls-9" d="M361.62,196.82l27.95,15.65-7.44,20.67L353.82,216.5l7.8-19.68m-.13-.36-8,20.15,28.76,16.9,7.61-21.15-28.39-15.9Z"/><polygon class="cls-12" points="352.49 217.43 360.23 197.93 388.27 213.87 380.97 234.08 352.49 217.43"/><polygon class="cls-12" points="384.96 213.03 359.29 198.43 351.55 217.93 380.02 234.59 386.29 217.26 383.77 216 384.96 213.03"/><path class="cls-2" d="M379.32,236.67l1-4.66c0-.13.05-.25.08-.37l0-.15a4.56,4.56,0,0,1,1.9-2.59,1.72,1.72,0,0,1,.86-.26,1,1,0,0,1,.62.2l.91.76,2.75,2.46L381,235.61l-.87,1.65Z"/><path class="cls-9" d="M383.18,228.76a.84.84,0,0,1,.54.18l.91.75h0l2.61,2.34-6.35,3.47-.06,0,0,.07-.76,1.46-.57-.45,1-4.6a2.53,2.53,0,0,1,.07-.36l0-.1v0a4.47,4.47,0,0,1,1.84-2.52,1.68,1.68,0,0,1,.8-.25h0m0-.25a1.86,1.86,0,0,0-.92.28,4.67,4.67,0,0,0-2,2.67h0l0,.15c0,.12-.06.25-.08.37l-1,4.75.94.72.89-1.73,6.67-3.64-2.89-2.58-.92-.76h0a1.08,1.08,0,0,0-.69-.23Z"/><path class="cls-10" d="M381.25,232.73c0-.13.05-.25.08-.37l0-.15a4.59,4.59,0,0,1,1.9-2.59,1.44,1.44,0,0,1,.75-.23,1.77,1.77,0,0,1,1.07.46c.49.35,2.75,2.41,3.32,2.93l-8.1,4.43Z"/><path class="cls-9" d="M384,229.52a1.69,1.69,0,0,1,1,.43c.46.33,2.46,2.15,3.18,2.8l-7.7,4.22.89-4.23c0-.12.05-.23.08-.36l0-.1v0a4.38,4.38,0,0,1,1.84-2.52,1.33,1.33,0,0,1,.69-.21m0-.25a1.64,1.64,0,0,0-.81.24,4.63,4.63,0,0,0-2,2.67h0l0,.15a2.45,2.45,0,0,0-.08.37l-1,4.75,8.49-4.65s-2.89-2.64-3.46-3.06a2,2,0,0,0-1.14-.47Z"/><path class="cls-16" d="M383.43,230.17a2.87,2.87,0,0,0-1.29,2.24c0,.83.58,1.16,1.29.75a2.9,2.9,0,0,0,1.29-2.25C384.72,230.09,384.14,229.76,383.43,230.17Z"/><polygon class="cls-17" points="351.9 217.04 350.17 218.24 379.47 235.38 379.68 234.38 351.55 217.93 351.9 217.04"/></g><path class="cls-2" d="M228.38,273.23c-7.56,0-13.49-8-18.73-15.12-1.43-1.94-2.78-3.77-4.11-5.36a3.46,3.46,0,0,1,2.29-5.59,2.51,2.51,0,0,1,1.91,1c6.43,7.69,12.69,11.42,19.15,11.42a15.77,15.77,0,0,0,2.16-.14l1.07-.13c5-.64,6.32-.81,9.84-5.05a1.72,1.72,0,0,1,1.28-.72c.93,0,2,1,2.7,2.5.82,1.74,1.1,4.15-.13,5.63l-1.36,2.15c-4.73,5.69-7.35,8.49-14.86,9.34A9.82,9.82,0,0,1,228.38,273.23Z"/><path class="cls-9" d="M207.83,247.59a2,2,0,0,1,1.58.85c6.52,7.79,12.89,11.57,19.47,11.57a18.54,18.54,0,0,0,2.23-.14l1.07-.14c5-.63,6.48-.82,10.11-5.2a1.3,1.3,0,0,1,1-.56c.74,0,1.69.93,2.32,2.25.76,1.62,1,3.84-.08,5.17l0,.05,0,0-1.31,2.07c-4.66,5.62-7.24,8.35-14.56,9.19a11.48,11.48,0,0,1-1.17.07c-7.34,0-13.2-7.95-18.38-14.95-1.44-2-2.79-3.79-4.13-5.38a3,3,0,0,1,2-4.89m0-.86a3.89,3.89,0,0,0-2.62,6.3c6.18,7.38,13.29,20.63,23.17,20.63a10.64,10.64,0,0,0,1.26-.07c7.62-.87,10.33-3.71,15.17-9.54l1.33-2.11c2.4-2.89-.26-8.82-2.9-8.82a2.09,2.09,0,0,0-1.61.87c-3.65,4.39-4.82,4.27-10.63,5a17,17,0,0,1-2.12.14c-7.72,0-14-5.56-18.81-11.27a2.9,2.9,0,0,0-2.24-1.16Z"/><path class="cls-2" d="M207.38,251.63a2.87,2.87,0,0,1-2-.83l-2.55-2.49a2.89,2.89,0,0,1-.87-2.06,2.92,2.92,0,0,1,2.92-3,2.91,2.91,0,0,1,2.06.83l2.54,2.49a2.85,2.85,0,0,1,.87,2.06,2.9,2.9,0,0,1-2.92,3Z"/><path class="cls-9" d="M204.84,243.72a2.48,2.48,0,0,1,1.75.71l2.54,2.49a2.49,2.49,0,0,1-1.75,4.28,2.46,2.46,0,0,1-1.75-.71L203.08,248a2.51,2.51,0,0,1,0-3.54,2.48,2.48,0,0,1,1.8-.75m0-.86a3.36,3.36,0,0,0-2.4,1h0a3.37,3.37,0,0,0,0,4.75l2.55,2.49a3.36,3.36,0,0,0,4.7-4.81l-2.54-2.49a3.41,3.41,0,0,0-2.36-.95Z"/><path class="cls-2" d="M204.11,278.76a4.64,4.64,0,0,1-4.51-3.42l-6.68-23.91,4.59.34,6.72,16.34.45-.57c2.72-3.44,10.33-12.47,12.89-12.91l.23,0c2.2,0,4.12,5.17,4.76,7.45l-15.15,15.31A4.62,4.62,0,0,1,204.11,278.76Z"/><path class="cls-9" d="M193.5,251.91l3.71.27,6.34,15.42.56,1.35.91-1.15c3.74-4.73,10.47-12.38,12.62-12.75h.17c1.6,0,3.4,3.88,4.27,6.89l-15,15.14a4.24,4.24,0,0,1-7.1-1.84l-6.51-23.32m-1.16-.95,6.85,24.5a5.09,5.09,0,0,0,8.53,2.21L223,262.18s-2.13-8-5.24-8a1.53,1.53,0,0,0-.3,0c-3.28.56-13.15,13.06-13.15,13.06l-6.55-15.91-5.46-.4Z"/><path class="cls-18" d="M199.06,258.15l8.75-3.84a1.35,1.35,0,0,0,.67-1.54l-3.87-16.53a.9.9,0,0,0-1.21-.74l-8.67,3.69a1.37,1.37,0,0,0-.68,1.54l3.85,16.45c.1.42.28.51.64.69Z"/><path class="cls-18" d="M201.68,243s6.95,10.45,6.8,9.82l-3.76-17-.68-.23a.79.79,0,0,0-.64,0l-8.67,3.69a1.14,1.14,0,0,0-.58.6Z"/><path class="cls-10" d="M199.51,257.87c-.2,0-.37-.18-.44-.48l-3.87-16.52a1,1,0,0,1,.4-1.06l8.64-3.69a.47.47,0,0,1,.16,0c.2,0,.38.2.45.48l3.87,16.53a1,1,0,0,1-.4,1.06l-8.65,3.69A.45.45,0,0,1,199.51,257.87Z"/><path class="cls-9" d="M204.38,236.53a.23.23,0,0,1,.05.13l3.87,16.53a.54.54,0,0,1-.15.56l-8.61,3.68a.44.44,0,0,1,0-.13l-3.87-16.53a.59.59,0,0,1,.14-.57l8.62-3.67m0-.87a1,1,0,0,0-.33.06l-8.64,3.7a1.35,1.35,0,0,0-.65,1.54l3.87,16.53a.94.94,0,0,0,.86.81.78.78,0,0,0,.33-.07l8.65-3.69a1.34,1.34,0,0,0,.65-1.54l-3.87-16.53a1,1,0,0,0-.87-.81Z"/><polygon class="cls-2" points="196.43 241.18 204.09 237.92 207.26 251.64 199.79 254.82 196.43 241.18"/><path class="cls-9" d="M203.79,238.51l3,12.88-6.67,2.84-3.16-12.8,6.86-2.92m.6-1.18-8.46,3.6,3.51,14.24c0,.11-.26.35-.22.35h0l8.52-3.62-3.37-14.57Z"/><path class="cls-2" d="M194.76,255.77a2.79,2.79,0,0,1-2.74-2.48l-.78-7.5a2.77,2.77,0,0,1,2.47-3H194a2.8,2.8,0,0,1,2.75,2.48l.77,7.5a2.76,2.76,0,0,1-2.46,3Z"/><path class="cls-9" d="M194,243.18a2.35,2.35,0,0,1,2.32,2.09l.78,7.5a2.33,2.33,0,0,1-2.09,2.56h-.24a2.35,2.35,0,0,1-2.32-2.09l-.77-7.5a2.33,2.33,0,0,1,2.08-2.56H194m0-.86a1.83,1.83,0,0,0-.33,0,3.2,3.2,0,0,0-2.85,3.5l.78,7.5a3.2,3.2,0,0,0,3.17,2.86h.33a3.21,3.21,0,0,0,2.85-3.51l-.77-7.5a3.21,3.21,0,0,0-3.18-2.86Z"/><path class="cls-10" d="M245.86,377.68a4.17,4.17,0,0,1-2.14-.56l-7.52-6c-.85-.5-1.31-1.08-1.31-1.63a1.42,1.42,0,0,1,.82-1.14l.44-.25a1.74,1.74,0,0,1,.92-.25,9.64,9.64,0,0,1,3.43,1.25l1.85.87.06,0,5.12.64c1,.6,1.05.63,1.28,1.91l.08.47c.54,2.84-.11,3.59-.12,3.6a4.45,4.45,0,0,1-2.91,1Z"/><path class="cls-9" d="M237.07,368.31a9.45,9.45,0,0,1,3.25,1.21l1.85.87.12.05.13,0,5,.62c.79.46.8.52,1,1.57l.09.48c.43,2.28.06,3.09,0,3.23a4.08,4.08,0,0,1-2.59.89,3.83,3.83,0,0,1-1.88-.47l-7.52-6-.05,0,0,0c-.64-.37-1-.84-1-1.22s.38-.64.61-.77l.43-.25a1.38,1.38,0,0,1,.71-.19m0-.86a2.25,2.25,0,0,0-1.14.31l-.43.25c-1.54.89-1.34,2.45.43,3.47l7.57,6a4.76,4.76,0,0,0,2.36.6,4.91,4.91,0,0,0,3.21-1.15s.85-.76.25-4c-.35-1.83-.23-1.9-1.65-2.72l-5.15-.64c-2.62-1.19-4.18-2.16-5.45-2.16Z"/><path class="cls-10" d="M226.63,391a7.56,7.56,0,0,1-1.54-.2l-11.1-4c-1-.22-1.71-.67-1.89-1.25a1.54,1.54,0,0,1,.47-1.46l.37-.41a2.4,2.4,0,0,1,2-.7,22.42,22.42,0,0,1,2.83.28l2.17.29H220l5.46-1c1.28.28,1.29.31,2,1.55l.25.46c1.49,2.75,1.06,3.75,1.06,3.76l0,.09v.12a2.7,2.7,0,0,1-.53,2,2,2,0,0,1-1.5.5Z"/><path class="cls-9" d="M225.44,382.93c1,.22,1,.27,1.59,1.32l.24.46c1.17,2.15,1.09,3.12,1,3.34l-.1.1v.33a2.54,2.54,0,0,1-.41,1.74,1.6,1.6,0,0,1-1.19.36,7.33,7.33,0,0,1-1.39-.17l-11.11-4,0,0H214a1.94,1.94,0,0,1-1.51-.95,1.19,1.19,0,0,1,.38-1.05l.36-.4a2,2,0,0,1,1.67-.57,22.12,22.12,0,0,1,2.77.29c.66.09,1.38.19,2.18.28l.13,0,.13,0,5.31-1m0-.87-5.48,1c-2.22-.25-3.83-.57-5.05-.57a2.81,2.81,0,0,0-2.3.85l-.36.4c-1.28,1.41-.57,2.94,1.58,3.41L225,391.23a8.1,8.1,0,0,0,1.63.21c1.45,0,2.54-.66,2.46-3,0,0,.62-1.06-1.06-4.15-1-1.76-.86-1.87-2.58-2.24Z"/><path class="cls-2" d="M224.62,385.17c-1.34,0-2.7-.52-2.7-1.51v-7.94h5.41v7.94C227.33,384.65,226,385.17,224.62,385.17Z"/><path class="cls-9" d="M226.9,376.15v7.51c0,.68-1.16,1.08-2.28,1.08s-2.27-.4-2.27-1.08v-7.51h4.55m.86-.86h-6.27v8.37c0,1.29,1.57,1.94,3.13,1.94s3.14-.65,3.14-1.94v-8.37Z"/><path class="cls-10" d="M225.17,380.42c-1.63,0-3.67-.56-4-2.15a808.82,808.82,0,0,1-3.91-85.79h21.65a355,355,0,0,0-10,86.68c-.54.75-2,1.26-3.68,1.26Z"/><path class="cls-9" d="M238.32,292.91a355.35,355.35,0,0,0-9.9,86.1,4.79,4.79,0,0,1-3.25,1c-1.45,0-3.26-.46-3.62-1.77a808.65,808.65,0,0,1-3.92-85.31h20.69m1.08-.86H216.78a816.82,816.82,0,0,0,3.92,86.32c.42,1.74,2.46,2.48,4.47,2.48,1.77,0,3.51-.58,4.11-1.56-.42-28.18,3-57.44,10.12-87.24Z"/><path class="cls-2" d="M246.07,372.6c-1.33,0-2.76-.47-2.82-1.35l-.43-7.13h5.41l.44,7.18a.75.75,0,0,1-.23.59A3.47,3.47,0,0,1,246.07,372.6Z"/><path class="cls-9" d="M247.82,364.55l.42,6.78a.34.34,0,0,1-.11.27,3.11,3.11,0,0,1-2.06.57c-1.24,0-2.36-.44-2.39-.94l-.41-6.68h4.55m.81-.86h-6.27l.47,7.59c.07,1.16,1.67,1.75,3.24,1.75s3.1-.59,3-1.75l-.47-7.59Z"/><path class="cls-10" d="M245.57,369a5.1,5.1,0,0,1-3.57-1.29l-10.61-73,14.86-2.2,3.29,74.95c-.54.89-2.25,1.58-4,1.58Z"/><path class="cls-9" d="M245.84,293l3.27,74.33a5.39,5.39,0,0,1-6.71.19L231.87,295l14-2.06m.82-1-15.76,2.33,10.7,73.6a5.46,5.46,0,0,0,4,1.52c2,0,3.86-.83,4.41-1.91L246.66,292Z"/><path class="cls-19" d="M225,235.88c1.55,5.41,5.58,6.94,9,3.4s4.92-10.79,3.37-16.2-5.58-6.94-9-3.4S223.49,230.46,225,235.88Z"/><path class="cls-10" d="M226,239.35c-2.84,0-5.35-2.13-6.26-5.31-1.46-5.07,1.51-11.69,5-15.35a5,5,0,0,1,3.52-1.77c2.07,0,3.85,1.86,4.75,5,1.51,5.28.05,12.36-3.27,15.79a5.16,5.16,0,0,1-3.78,1.65Z"/><path class="cls-9" d="M228.31,217.34c1.87,0,3.49,1.76,4.33,4.69,1.48,5.15.06,12-3.15,15.37a4.75,4.75,0,0,1-3.48,1.52c-2.6,0-5-2-5.85-5-1.41-4.91,1.49-11.36,4.93-14.93a4.62,4.62,0,0,1,3.22-1.65m0-.85a5.4,5.4,0,0,0-3.83,1.9c-3.41,3.54-6.7,10.36-5.15,15.77,1,3.55,3.87,5.62,6.68,5.62A5.62,5.62,0,0,0,230.1,238c3.41-3.54,4.92-10.79,3.37-16.2-1-3.44-3-5.31-5.16-5.31Z"/><path class="cls-10" d="M231.63,249.44c-1.89,0-4.44-1.16-4.76-2.6l-.8-10.91A3.25,3.25,0,0,1,228.5,232l.58-.13a3.33,3.33,0,0,1,.7-.07,3.25,3.25,0,0,1,3.15,2.52l2.47,11a3.22,3.22,0,0,1-2.45,3.84l-.58.13a3.36,3.36,0,0,1-.74.08Z"/><path class="cls-9" d="M229.78,232.24a2.81,2.81,0,0,1,2.73,2.19l2.47,11a2.76,2.76,0,0,1-.38,2.11,2.81,2.81,0,0,1-1.74,1.23l-.58.13a3.2,3.2,0,0,1-.65.06c-1.84,0-4-1.13-4.33-2.21l-.8-10.9v-.12a2.79,2.79,0,0,1,2.12-3.34l.58-.13a3,3,0,0,1,.6-.07m0-.85a4.23,4.23,0,0,0-.79.08l-.58.13a3.66,3.66,0,0,0-2.77,4.36l.81,11c.38,1.71,3.17,2.94,5.18,2.94a3.58,3.58,0,0,0,.83-.09l.58-.13a3.66,3.66,0,0,0,2.77-4.36l-2.46-11a3.67,3.67,0,0,0-3.57-2.85Z"/><path class="cls-20" d="M239.05,235s-.59,5.1-7.83,4.08c-5.2-.73-3.69-9.19-8.88-10-5.72-.94-6.76-8-4.5-10.71s8.55-4.13,13.11-2.12S242.54,218.08,239.05,235Z"/><path class="cls-10" d="M224.7,233.32a2,2,0,0,1-.57-4,1.87,1.87,0,0,1,.57-.08,2.06,2.06,0,0,1,2,1.48,2.06,2.06,0,0,1-1.41,2.54,2.1,2.1,0,0,1-.56.08Z"/><path class="cls-9" d="M224.7,229.65a1.63,1.63,0,0,1,1.56,1.17,1.59,1.59,0,0,1-.14,1.23,1.64,1.64,0,0,1-1,.78,1.74,1.74,0,0,1-.45.06,1.62,1.62,0,0,1-.45-3.18,1.74,1.74,0,0,1,.45-.06m0-.86a2.72,2.72,0,0,0-.69.09,2.48,2.48,0,0,0,.69,4.87,2.33,2.33,0,0,0,.68-.1,2.48,2.48,0,0,0-.68-4.86Z"/><path class="cls-2" d="M225.85,299.2c-3.38,0-7.62-.72-8.7-4.13-.09-2.17-.37-5.27-.69-8.86-.64-7.15-1.52-16.95-1.48-25.83-.57-7.81,2.63-9.76,16.29-16.8,1.23-.63,6.77-2.27,6.83-2.29a10.62,10.62,0,0,1,2.43-.32,4.71,4.71,0,0,1,3.62,1.44c2.42,2.53,3.25,8.58,2.72,19.62.06,4-.18,7.58-.4,11.06-.39,5.89-.75,11.45.4,17.84-2.07,4-12.77,8.27-21,8.27Z"/><path class="cls-9" d="M240.53,241.4a4.25,4.25,0,0,1,3.31,1.3c2.3,2.41,3.12,8.55,2.6,19.31v.05c.06,3.95-.18,7.54-.4,11-.38,5.87-.74,11.42.38,17.8-2.13,3.82-12.69,7.91-20.57,7.91-2.64,0-7.19-.49-8.27-3.77-.1-2.19-.37-5.27-.69-8.83-.64-7.14-1.52-16.93-1.48-25.79v-.06c-.56-7.51,2.6-9.43,16.06-16.36,1-.51,5.21-1.8,6.71-2.25a10.13,10.13,0,0,1,2.35-.31m0-.86a11.07,11.07,0,0,0-2.55.34s-5.63,1.66-6.9,2.32c-13.52,7-17.12,9.1-16.53,17.18-.06,13.3,1.9,28.22,2.18,34.77,1,3.22,4.64,4.48,9.12,4.48,8.32,0,19.46-4.36,21.47-8.63-1.85-10.15.14-18.16,0-28.95.76-15.75-1.29-21.51-6.77-21.51Z"/><path class="cls-21" d="M225.92,239.78l.59-1.36a3.72,3.72,0,0,1-3,.79A4.85,4.85,0,0,0,225.92,239.78Z"/><path class="cls-22" d="M429.8,275.76c38.57-22.26,97.2-26.06,142.61-11.39,4.07-10.32,13.11-19.92,26.55-27.68,38.68-22.33,101.62-22.33,140.3,0a81.9,81.9,0,0,1,9,6c39.86-16.53,95.87-14.46,131.68,6.21,39.79,23,39.79,60.37,0,83.34L549.58,523c-39.8,23-104.55,23-144.35,0-39.37-22.74-39.79-59.58-1.24-82.61-21.18-19.24-17.24-45.11,11.82-61.88a93.09,93.09,0,0,1,12.78-6.09C383.31,345.52,383.71,302.37,429.8,275.76Z"/><path d="M531.92,410.15l24.43,14.1-3.16,1.82L528.77,412Z"/><path d="M559.59,402.52a16.55,16.55,0,0,1,8.19,2.37l11.05,6.38-3.15,1.82-10.78-6.22a11.67,11.67,0,0,0-5.82-1.68,10.43,10.43,0,0,0-5.47,1.4q-2.6,1.5-2.48,3.37c.08,1.24,1.2,2.49,3.34,3.73l10.09,5.82-3.16,1.82-19-11,3.15-1.82,4.5,2.6a3.46,3.46,0,0,1-1-3.55,6.24,6.24,0,0,1,3-3.19A14.33,14.33,0,0,1,559.59,402.52Z"/><path d="M590,401.63l2.77,1.6-2.35,1.36a11.67,11.67,0,0,1-5.74,1.71,12,12,0,0,1-6.07-1.85l-10.26-5.92-2.84,1.64-2.74-1.58L565.6,397l-4.75-2.74,3.19-1.84,4.74,2.74,4.92-2.84,2.74,1.58-4.92,2.84,10.32,6a6.74,6.74,0,0,0,3.19,1.06,6.15,6.15,0,0,0,3-1Z"/><path d="M605.12,385.89l-15.21,8.78a13.55,13.55,0,0,0,6.74,1.75,12.23,12.23,0,0,0,5.91-1.53,5,5,0,0,0,2.66-2.88,2.77,2.77,0,0,0-1.21-2.88l3.36-1.94a5.36,5.36,0,0,1,2,2.93,4,4,0,0,1-.67,3.19,10,10,0,0,1-3.43,3,17.82,17.82,0,0,1-6,2.12,20.31,20.31,0,0,1-6.69,0,19.33,19.33,0,0,1-6.37-2.3,9.87,9.87,0,0,1-4-3.69,4.09,4.09,0,0,1-.09-3.87,8.78,8.78,0,0,1,3.68-3.48,17.18,17.18,0,0,1,6-2.11,19.64,19.64,0,0,1,6.31,0,16.2,16.2,0,0,1,5.46,1.89A9.84,9.84,0,0,1,605.12,385.89Zm-8.8-.76a12.16,12.16,0,0,0-4.3,0,11.54,11.54,0,0,0-3.7,1.34q-2.6,1.5-2.76,3.45c-.1,1.3.84,2.57,2.83,3.83l12.16-7A11,11,0,0,0,596.32,385.13Z"/><path d="M605.86,374.6a7.19,7.19,0,0,1,3.21-3.11l3.43,2-1,.56c-1.78,1-2.78,2.13-3,3.31s.72,2.37,2.82,3.59l10,5.78-3.16,1.82-19-11,3.15-1.82,3.84,2.22A3.49,3.49,0,0,1,605.86,374.6Z"/><path d="M629.7,362a16.55,16.55,0,0,1,8.19,2.37l11.05,6.38-3.15,1.82L635,366.39a11.67,11.67,0,0,0-5.82-1.68,10.43,10.43,0,0,0-5.47,1.4q-2.6,1.5-2.48,3.37c.09,1.24,1.2,2.49,3.35,3.73L634.67,379l-3.15,1.82-19-11,3.15-1.82,4.5,2.6a3.43,3.43,0,0,1-1-3.55,6.16,6.16,0,0,1,3-3.19A14.27,14.27,0,0,1,629.7,362Z"/><path d="M662.31,352.87l-15.21,8.78a13.55,13.55,0,0,0,6.74,1.75,12.23,12.23,0,0,0,5.91-1.53,5.08,5.08,0,0,0,2.67-2.88,2.78,2.78,0,0,0-1.22-2.88l3.36-1.94a5.44,5.44,0,0,1,2,2.93,4.07,4.07,0,0,1-.68,3.19,9.93,9.93,0,0,1-3.43,3,17.67,17.67,0,0,1-6,2.12,20.25,20.25,0,0,1-6.68,0,19.3,19.3,0,0,1-6.38-2.3,9.94,9.94,0,0,1-4-3.69,4.09,4.09,0,0,1-.09-3.87A8.78,8.78,0,0,1,643,352a17.16,17.16,0,0,1,6-2.11,19.58,19.58,0,0,1,6.3,0,16.12,16.12,0,0,1,5.46,1.89A9.84,9.84,0,0,1,662.31,352.87Zm-8.8-.76a12.1,12.1,0,0,0-4.29,0,11.6,11.6,0,0,0-3.71,1.34q-2.6,1.5-2.75,3.45c-.11,1.3.83,2.57,2.82,3.83l12.16-7A11,11,0,0,0,653.51,352.11Z"/><path d="M681.71,348.67l2.77,1.6-2.35,1.36a11.7,11.7,0,0,1-5.74,1.71,12.05,12.05,0,0,1-6.08-1.85l-10.25-5.92-2.84,1.64-2.74-1.58,2.84-1.64-4.74-2.74,3.18-1.84,4.75,2.74,4.92-2.84,2.74,1.58-4.92,2.84,10.32,6a6.7,6.7,0,0,0,3.19,1.06,6.15,6.15,0,0,0,3-1Z"/><g class="cls-23"><path d="M540.48,415.08l24.42,14.1L561.75,431l-24.43-14.1Z"/><path d="M568.14,407.45a16.76,16.76,0,0,1,8.19,2.37l11,6.38L584.23,418l-10.77-6.22a11.94,11.94,0,0,0-5.82-1.68,10.53,10.53,0,0,0-5.48,1.4c-1.73,1-2.56,2.13-2.47,3.37s1.19,2.49,3.34,3.73l10.08,5.82L570,426.26l-19-11,3.15-1.82,4.5,2.6a3.43,3.43,0,0,1-1-3.55,6.23,6.23,0,0,1,3-3.19A14.42,14.42,0,0,1,568.14,407.45Z"/><path d="M598.54,406.56l2.77,1.6L599,409.52a11.67,11.67,0,0,1-5.73,1.71,12,12,0,0,1-6.08-1.85l-10.25-5.92-2.84,1.64-2.74-1.58,2.84-1.64-4.75-2.74,3.19-1.84,4.75,2.74,4.91-2.84,2.74,1.58-4.92,2.84,10.32,6a6.63,6.63,0,0,0,3.19,1.06,6.18,6.18,0,0,0,3-1Z"/><path d="M613.67,390.82l-15.2,8.78a13.3,13.3,0,0,0,6.73,1.75,12,12,0,0,0,5.91-1.53,5.08,5.08,0,0,0,2.67-2.88,2.78,2.78,0,0,0-1.22-2.88l3.37-1.94a5.51,5.51,0,0,1,2,2.93,4.06,4.06,0,0,1-.68,3.19,9.83,9.83,0,0,1-3.43,3,17.46,17.46,0,0,1-6,2.12,20,20,0,0,1-6.68,0,18.94,18.94,0,0,1-6.38-2.3,9.8,9.8,0,0,1-4-3.69,4.06,4.06,0,0,1-.08-3.87,8.8,8.8,0,0,1,3.67-3.48,17.44,17.44,0,0,1,6-2.11,19.58,19.58,0,0,1,6.3,0,16,16,0,0,1,5.46,1.89A11.33,11.33,0,0,1,613.67,390.82Zm-8.8-.76a12.34,12.34,0,0,0-4.29,0,12.1,12.1,0,0,0-3.71,1.34q-2.6,1.5-2.75,3.45c-.11,1.3.84,2.58,2.82,3.83l12.16-7A11.19,11.19,0,0,0,604.87,390.06Z"/><path d="M614.42,379.53a7.15,7.15,0,0,1,3.2-3.11l3.43,2-1,.56q-2.67,1.55-3,3.31t2.82,3.59l10,5.78-3.15,1.82-19-11,3.15-1.82,3.85,2.22A3.46,3.46,0,0,1,614.42,379.53Z"/><path d="M638.25,367a16.76,16.76,0,0,1,8.19,2.37l11,6.38-3.15,1.82-10.77-6.22a11.91,11.91,0,0,0-5.82-1.68,10.5,10.5,0,0,0-5.47,1.4c-1.74,1-2.56,2.13-2.48,3.37s1.19,2.49,3.34,3.73L643.22,384l-3.15,1.82-19-11L624.2,373l4.51,2.6a3.43,3.43,0,0,1-1-3.55,6.23,6.23,0,0,1,3-3.19A14.42,14.42,0,0,1,638.25,367Z"/><path d="M670.87,357.8l-15.21,8.78a13.31,13.31,0,0,0,6.74,1.75,11.94,11.94,0,0,0,5.9-1.53,5,5,0,0,0,2.67-2.88,2.78,2.78,0,0,0-1.21-2.88l3.36-1.94a5.45,5.45,0,0,1,2,2.93,4,4,0,0,1-.68,3.19,9.74,9.74,0,0,1-3.43,3,17.48,17.48,0,0,1-6,2.12,20,20,0,0,1-6.69,0,18.81,18.81,0,0,1-6.37-2.3,9.74,9.74,0,0,1-4-3.69,4.06,4.06,0,0,1-.09-3.87,8.87,8.87,0,0,1,3.67-3.48,17.44,17.44,0,0,1,6-2.11,19.64,19.64,0,0,1,6.31,0,16.07,16.07,0,0,1,5.45,1.89A12.16,12.16,0,0,1,670.87,357.8Zm-8.8-.76a12.4,12.4,0,0,0-4.3,0,12.2,12.2,0,0,0-3.71,1.34q-2.59,1.5-2.75,3.45t2.82,3.83l12.16-7A11.15,11.15,0,0,0,662.07,357Z"/><path d="M690.26,353.6l2.78,1.6-2.36,1.36a11.67,11.67,0,0,1-5.73,1.71,11.93,11.93,0,0,1-6.08-1.85l-10.26-5.92-2.84,1.64L663,350.56l2.84-1.64-4.75-2.74,3.19-1.84,4.74,2.74,4.92-2.84,2.74,1.58-4.92,2.84,10.32,6a6.63,6.63,0,0,0,3.19,1.06,6.11,6.11,0,0,0,3-1Z"/></g><line class="cls-24" x1="320.28" y1="344.71" x2="344.24" y2="266.31"/><line class="cls-24" x1="344.24" y1="365.08" x2="677.82" y2="172.49"/><polyline class="cls-25" points="746.25 587.3 857.44 523.1 823.23 502.9 888.65 465.58"/><polyline class="cls-25" points="857.44 523.1 900.2 547.79 934.42 528.04 960.08 542.86"/><polygon class="cls-8" points="1070.72 745.74 1122.04 746.49 1216.13 692.16 1112.17 632.09 1070.72 745.74"/><polygon class="cls-26" points="1069.81 744.68 1143.21 701.32 1143.28 632.22 963.81 528.56 889.55 571.43 890.92 641.59 1000.63 706.5 1069.81 744.68 1069.81 744.68 1034.16 679.95 1069.81 744.68"/><polygon class="cls-2" points="889.8 571.43 963.81 528.7 1143.03 632.22 1069.95 674.41 889.8 571.43"/><path class="cls-9" d="M963.81,528.85l179,103.37-72.83,42L890.05,571.43l73.76-42.58m0-.29-74.26,42.87L1070,674.55l73.33-42.33L963.81,528.56Z"/><polygon class="cls-10" points="1070.07 674.62 1143.16 632.44 1143.09 701.25 1069.93 744.46 1070.07 674.62"/><path class="cls-9" d="M1143,632.66l-.07,68.52-72.9,43.06.14-69.54,72.83-42m.25-.44L1070,674.55l-.14,70.13,73.4-43.36.07-69.1Z"/><polyline class="cls-27" points="1069.81 744.68 1069.95 674.68 889.55 571.43 892.2 642.32 1069.81 744.68"/><polygon class="cls-26" points="1052.7 560.4 1126.11 517.04 1126.18 447.94 946.7 344.27 872.44 387.15 873.82 457.31 983.52 522.22 1052.7 560.4 1052.7 560.4 1017.05 495.67 1052.7 560.4"/><polygon class="cls-2" points="872.69 387.15 946.7 344.42 1125.93 447.94 1052.84 490.13 872.69 387.15"/><path class="cls-9" d="M946.7,344.56l179,103.38-72.84,42L873,387.15l73.75-42.59m0-.28-74.26,42.87,180.4,103.12,73.34-42.33L946.7,344.28Z"/><polygon class="cls-10" points="1052.97 490.34 1126.05 448.16 1125.98 516.97 1052.83 560.18 1052.97 490.34"/><path class="cls-9" d="M1125.93,448.37l-.07,68.53L1053,560l.13-69.55,72.84-42m.25-.43-73.34,42.33-.14,70.13L1126.11,517l.07-69.1Z"/><polyline class="cls-27" points="1052.7 560.4 1052.84 490.4 872.44 387.15 875.1 458.04 1052.7 560.4"/><polygon class="cls-28" points="1118.04 478.99 1083.83 498.75 1083.83 488.87 1118.04 469.12 1118.04 478.99"/><polygon class="cls-28" points="1118.04 490.88 1083.83 510.63 1083.83 500.76 1118.04 481.01 1118.04 490.88"/><polygon class="cls-28" points="1118.04 502.8 1083.83 522.55 1083.83 512.68 1118.04 492.93 1118.04 502.8"/><polygon class="cls-29" points="1082.12 499.77 1066.72 508.62 1066.72 498.75 1082.12 489.9 1082.12 499.77"/><polygon class="cls-29" points="1082.12 511.61 1066.72 520.45 1066.72 510.58 1082.12 501.73 1082.12 511.61"/><polygon class="cls-29" points="1082.12 523.95 1066.72 532.8 1066.72 522.92 1082.12 514.07 1082.12 523.95"/><ellipse class="cls-30" cx="886.14" cy="407.77" rx="5.24" ry="9.07" transform="translate(-85.16 497.7) rotate(-30)"/><ellipse class="cls-31" cx="916.66" cy="423.85" rx="2.56" ry="4.44" transform="translate(-89.11 515.12) rotate(-30)"/><ellipse class="cls-31" cx="908.39" cy="419.23" rx="2.56" ry="4.44" transform="translate(-87.91 510.37) rotate(-30)"/><ellipse class="cls-31" cx="899.91" cy="414.29" rx="2.56" ry="4.44" transform="translate(-86.58 505.46) rotate(-30)"/><line class="cls-5" x1="522.99" y1="521.55" x2="226.56" y2="348.72"/><polygon class="cls-2" points="281.26 403.84 274.4 399.67 286.89 381.35 290.7 383.55 281.26 403.84"/><path class="cls-2" d="M431,324.75a.47.47,0,0,1-.25-.07l-14.36-8.29a.5.5,0,0,1-.25-.43l-.26-16.73a.5.5,0,0,1,.25-.44L603.26,191.48a.55.55,0,0,1,.5,0l14.36,8.29a.5.5,0,0,1,.25.44v16.58a.48.48,0,0,1-.25.43L431.29,324.68A.45.45,0,0,1,431,324.75Z"/><path class="cls-9" d="M603.51,191.92l14.36,8.29v16.58L431,324.25,416.68,316l-.26-16.73L603.51,191.92m0-1a1,1,0,0,0-.5.13L415.92,298.36a1,1,0,0,0-.5.88l.26,16.73a1,1,0,0,0,.5.85l14.36,8.29a1,1,0,0,0,.5.14,1.09,1.09,0,0,0,.5-.13L618.37,217.66a1,1,0,0,0,.5-.87V200.21a1,1,0,0,0-.5-.87L604,191.05a1,1,0,0,0-.5-.13Z"/><polygon class="cls-6" points="430.27 324.45 450.92 320.04 623.51 220.7 516.22 241.66 430.27 324.45"/><polygon class="cls-2" points="416.67 299.16 603.51 191.99 617.62 200.14 431.04 307.45 416.67 299.16"/><path class="cls-9" d="M603.51,192.13l13.86,8L431,307.31l-14.12-8.15,186.59-107m0-.29L416.42,299.16,431,307.6,617.87,200.14l-14.36-8.3Z"/><polygon class="cls-10" points="416.8 315.81 416.55 299.37 430.92 307.67 430.92 323.96 416.8 315.81"/><path class="cls-9" d="M416.68,299.59l14.11,8.15v16l-13.86-8-.25-16.15m-.26-.43.26,16.73L431,324.18V307.6l-14.62-8.44Z"/><polygon class="cls-2" points="431.17 307.67 617.75 200.35 617.75 216.65 431.17 323.96 431.17 307.67"/><path class="cls-9" d="M617.62,200.57v16L431.29,323.74v-16L617.62,200.57m.25-.43L431,307.6v16.58L617.87,216.72V200.14Z"/><path class="cls-32" d="M456.17,302.88v3.21l-1.92,1.1V298l3.11-1.8c.94-.54,1.66-.69,2.15-.43s.74.84.74,1.76a4.76,4.76,0,0,1-.33,1.71,5.53,5.53,0,0,1-1,1.61,6.1,6.1,0,0,1-1.58,1.3Zm2.13-4.19c0-.8-.39-1-1.16-.54l-1,.57v2.38l1-.56A2.06,2.06,0,0,0,458.3,298.69Z"/><path class="cls-32" d="M463.06,293v5.29c0,.6.11,1,.35,1.18s.58.15,1-.11a2.55,2.55,0,0,0,1-1.08,3.32,3.32,0,0,0,.35-1.58v-5.29l1.92-1.11v5.29a6.76,6.76,0,0,1-.43,2.43,7.21,7.21,0,0,1-1.2,2,6.61,6.61,0,0,1-1.71,1.43,3.21,3.21,0,0,1-1.68.53,1.33,1.33,0,0,1-1.15-.67,3.78,3.78,0,0,1-.41-2v-5.29Z"/><path class="cls-32" d="M474.91,291.36a1.46,1.46,0,0,1,.42,1.17,4.08,4.08,0,0,1-.68,2.23,5.54,5.54,0,0,1-1.95,1.78L469,298.67v-9.16l3.6-2.07a2.46,2.46,0,0,1,1.88-.48c.44.15.66.61.66,1.36a3.65,3.65,0,0,1-.38,1.6,4.14,4.14,0,0,1-1,1.29A1.14,1.14,0,0,1,474.91,291.36Zm-4,.79,1.26-.72a1.76,1.76,0,0,0,1-1.57q0-1-1-.39l-1.23.71Zm2.43,1.2c0-.33-.09-.53-.28-.61a.93.93,0,0,0-.79.18l-1.36.78v2.06l1.37-.79A1.83,1.83,0,0,0,473.36,293.35Z"/><path class="cls-32" d="M478.26,291.64l2.55-1.48v1.7l-4.47,2.58v-9.15l1.92-1.11Z"/><path class="cls-32" d="M483.62,281.08v9.16l-1.92,1.11v-9.16Z"/><path class="cls-32" d="M491.07,277.61a2.09,2.09,0,0,1,1.28,1.74l-2,1.18a.92.92,0,0,0-.69-.6,1.6,1.6,0,0,0-1.1.27,3.56,3.56,0,0,0-1.36,1.5,4.81,4.81,0,0,0-.51,2.2,2,2,0,0,0,.51,1.6,1.15,1.15,0,0,0,1.36-.08,3.48,3.48,0,0,0,1.1-1,4.26,4.26,0,0,0,.69-1.38l2-1.17a8.28,8.28,0,0,1-1.28,3.22,7.38,7.38,0,0,1-2.51,2.37,3.41,3.41,0,0,1-2,.58,1.68,1.68,0,0,1-1.35-.87,4.09,4.09,0,0,1-.48-2.14,7.93,7.93,0,0,1,.48-2.7,8.5,8.5,0,0,1,1.35-2.43,7.2,7.2,0,0,1,2-1.76A3.08,3.08,0,0,1,491.07,277.61Z"/><path class="cls-32" d="M497.59,273v9.16l-1.91,1.11v-9.16Z"/><path class="cls-32" d="M506,277.34,504,278.45l-3.2-3.77v5.62l-1.92,1.11v-9.16l1.92-1.11L504,275v-5.67l1.92-1.11Z"/><path class="cls-32" d="M513,264.13v1.76l-2.15,1.24v7.4l-1.93,1.11v-7.39l-2.13,1.23v-1.76Z"/><path class="cls-32" d="M515.71,264.32v1.91l2.68-1.55v1.68l-2.68,1.54v2l3-1.75V270l-4.94,2.85v-9.16l4.94-2.85v1.76Z"/><path class="cls-32" d="M523.89,267l-1.72-2.47-.44.26v3.45l-1.92,1.11v-9.16l3.28-1.89a3.39,3.39,0,0,1,1.59-.54,1.11,1.11,0,0,1,1,.46,2.27,2.27,0,0,1,.32,1.31,4.36,4.36,0,0,1-.47,2,5.39,5.39,0,0,1-1.39,1.76l1.89,2.52Zm-2.16-3.73,1.19-.69a2.34,2.34,0,0,0,.84-.77,1.94,1.94,0,0,0,.27-1c0-.36-.09-.6-.27-.7s-.46,0-.84.18l-1.19.68Z"/><path class="cls-32" d="M534,261.16l-1.92,1.1-3.2-3.77v5.62L527,265.22v-9.15l1.92-1.11,3.2,3.82v-5.67L534,252Z"/><path class="cls-32" d="M537.24,251.89v1.91l2.68-1.54v1.67l-2.68,1.54v2l3-1.74v1.77l-4.93,2.85v-9.16l4.93-2.85v1.76Z"/><path class="cls-32" d="M547,244.47v1.76l-2.15,1.24v7.4L543,256v-7.4l-2.14,1.24v-1.77Z"/><path class="cls-32" d="M555.79,239.41v1.76l-2.15,1.25v7.4l-1.93,1.11v-7.4l-2.14,1.23V243Z"/><path class="cls-32" d="M560.67,245.75,559,243.29l-.44.25V247l-1.91,1.11V239l3.27-1.89a3.31,3.31,0,0,1,1.59-.55,1.12,1.12,0,0,1,1,.47,2.25,2.25,0,0,1,.33,1.31,4.43,4.43,0,0,1-.48,2A5.49,5.49,0,0,1,560.9,242l1.89,2.51ZM558.51,242l1.19-.68a2.13,2.13,0,0,0,.84-.78,1.94,1.94,0,0,0,.27-1q0-.54-.27-.69c-.18-.1-.46,0-.84.17l-1.19.69Z"/><path class="cls-32" d="M568.64,239.48l-3,1.72-.49,2-2,1.17,2.9-10.77,2.21-1.28,2.91,7.42-2,1.17Zm-.49-1.4-1-2.8-1,3.95Z"/><path class="cls-32" d="M577.09,227.12v1.76l-3.25,1.87v2l2.51-1.45V233l-2.51,1.45v3.7l-1.92,1.11V230.1Z"/><path class="cls-32" d="M583.25,223.56v1.76L580,227.2v2l2.51-1.45v1.68L580,230.89v3.71l-1.92,1.1v-9.15Z"/><path class="cls-32" d="M586.15,221.88V231l-1.91,1.11V223Z"/><path class="cls-32" d="M593.61,218.41a2.09,2.09,0,0,1,1.28,1.74l-2,1.18a.94.94,0,0,0-.69-.6,1.59,1.59,0,0,0-1.1.27,3.56,3.56,0,0,0-1.36,1.5,4.82,4.82,0,0,0-.52,2.2,2,2,0,0,0,.52,1.6,1.15,1.15,0,0,0,1.36-.08,3.59,3.59,0,0,0,1.1-1,4.47,4.47,0,0,0,.69-1.38l2-1.17a8.22,8.22,0,0,1-1.28,3.22,7.38,7.38,0,0,1-2.51,2.37,3.52,3.52,0,0,1-2,.59,1.72,1.72,0,0,1-1.35-.88,4.09,4.09,0,0,1-.48-2.14,7.93,7.93,0,0,1,.48-2.7,8.5,8.5,0,0,1,1.35-2.43,7.07,7.07,0,0,1,2-1.76A3.08,3.08,0,0,1,593.61,218.41Z"/><path d="M421.66,429.48,424.21,440l2.54-7.57,2.7,1.55-3.62,9.93L422.57,442l-3.6-14.1Z"/><path d="M432.94,443.79V448l-2.52-1.46v-12l4.08,2.36a7.62,7.62,0,0,1,2.82,2.69,6.57,6.57,0,0,1,1,3.43,3,3,0,0,1-.44,1.74,1.5,1.5,0,0,1-1.29.64,4.32,4.32,0,0,1-2.07-.7Zm2.79-2.26a2.73,2.73,0,0,0-1.51-2.46l-1.28-.74v3.13l1.28.74C435.23,442.78,435.73,442.56,435.73,441.53Z"/><path d="M448.78,457.15l-2.52-1.45-4.21-9.81v7.38l-2.52-1.46v-12l2.52,1.46,4.21,9.88v-7.45l2.52,1.45Z"/><path d="M460.94,452.15v2.32l-2.83-1.64v9.71l-2.53-1.46v-9.71l-2.8-1.61v-2.32Z"/><path d="M464.44,454.18v6.93a4.47,4.47,0,0,0,.47,2.09,3.37,3.37,0,0,0,1.34,1.41c.59.34,1,.39,1.35.14s.46-.75.46-1.55v-6.93l2.52,1.45v6.94a4.51,4.51,0,0,1-.57,2.53,1.85,1.85,0,0,1-1.57.85,4.63,4.63,0,0,1-2.25-.71,8.31,8.31,0,0,1-2.2-1.86,8.63,8.63,0,0,1-1.51-2.61,9.33,9.33,0,0,1-.54-3.19v-6.94Z"/><path d="M481.51,476.05,479,474.59l-4.21-9.81v7.38l-2.52-1.45v-12l2.52,1.45L479,470v-7.45l2.52,1.46Z"/><path d="M492.49,482.39,490,480.93l-4.21-9.8v7.37l-2.52-1.45V465l2.52,1.45,4.21,9.88v-7.45l2.52,1.46Z"/><path d="M496.74,475.14v2.51l3.52,2v2.2l-3.52-2v2.67l4,2.28v2.33l-6.48-3.74v-12l6.48,3.74v2.31Z"/><path d="M504.65,487.18l3.36,1.94v2.23l-5.88-3.4v-12l2.52,1.45Z"/><polyline class="cls-33" points="318.45 330.43 320.28 342.86 330.59 331.65"/><polyline class="cls-33" points="345.01 281.29 343.91 268.78 332.96 279.37"/><path class="cls-2" d="M92,635.47a25.08,25.08,0,0,1-10.5,9.37q-6.93,3.49-16.81,3.5-14.88,0-24.5-7.25T29.7,620.84H52.45A12,12,0,0,0,56,628.72a11,11,0,0,0,7.81,2.87,9.06,9.06,0,0,0,6.5-2.25,7.86,7.86,0,0,0,2.38-6,7.73,7.73,0,0,0-2.19-5.62A17.18,17.18,0,0,0,65.07,614q-3.24-1.44-9-3.44A111.26,111.26,0,0,1,42.39,605a25.14,25.14,0,0,1-9.13-8q-3.81-5.31-3.81-13.81a23.24,23.24,0,0,1,4-13.63,25.44,25.44,0,0,1,11.06-8.81,40.41,40.41,0,0,1,16.19-3.06q14.74,0,23.44,7T94,584H70.82A11.87,11.87,0,0,0,67.64,577a9.37,9.37,0,0,0-6.94-2.56,8.9,8.9,0,0,0-6.06,2,7.31,7.31,0,0,0-2.32,5.87,7.43,7.43,0,0,0,2.07,5.31,15.71,15.71,0,0,0,5.18,3.57q3.13,1.37,9,3.5a98.56,98.56,0,0,1,13.88,5.68,26.63,26.63,0,0,1,9.25,8.19q3.87,5.37,3.87,14A24.34,24.34,0,0,1,92,635.47Z"/><path class="cls-2" d="M128.82,616.47v31H107.45V559.09h34.62q15.75,0,24,7.81T174.32,588a29.07,29.07,0,0,1-3.68,14.68,25.57,25.57,0,0,1-10.94,10.13q-7.24,3.69-17.63,3.69ZM152.57,588q0-11.62-12.87-11.63H128.82v23H139.7Q152.57,599.34,152.57,588Z"/><path class="cls-2" d="M206.2,631.09h28.5v16.38H184.82V559.09H206.2Z"/><path class="cls-2" d="M266,559.09v88.38H244.57V559.09Z"/><path class="cls-2" d="M344.2,559.09v17h-24v71.38H298.7V576.09H275v-17Z"/><path class="cls-2" d="M59.5,665.52v7.75h-11v32.55h-9.8V673.27H27.92v-7.75Z"/><path class="cls-2" d="M73.06,665.52v23.25a9.14,9.14,0,0,0,1.8,6.1A6.45,6.45,0,0,0,80.07,697a6.47,6.47,0,0,0,5.22-2.11,9.14,9.14,0,0,0,1.8-6.1V665.52h9.74v23.25a19.19,19.19,0,0,1-2.22,9.61,14.48,14.48,0,0,1-6.07,5.87,18.84,18.84,0,0,1-8.69,2,18.21,18.21,0,0,1-8.55-1.94,13.8,13.8,0,0,1-5.82-5.87,20.26,20.26,0,0,1-2.11-9.64V665.52Z"/><path class="cls-2" d="M139.13,705.82h-9.75l-16.3-24.74v24.74h-9.75v-40.3h9.75l16.3,25v-25h9.75Z"/><path class="cls-2" d="M181.65,705.82H171.9l-16.3-24.74v24.74h-9.75v-40.3h9.75l16.3,25v-25h9.75Z"/><path class="cls-2" d="M198.12,673.27v8.44h13.62v7.35H198.12v9h15.33v7.81H188.37v-40.3h25.08v7.75Z"/><path class="cls-2" d="M228.73,698.35h13v7.47H219v-40.3h9.75Z"/><path class="cls-2" d="M256,665.52v40.3h-9.74v-40.3Z"/><path class="cls-2" d="M298.5,705.82h-9.75l-16.3-24.74v24.74H262.7v-40.3h9.75l16.3,25v-25h9.75Z"/><path class="cls-2" d="M336.57,668.82a15.82,15.82,0,0,1,6.1,10H332.35a7.9,7.9,0,0,0-3.13-3.45,10.51,10.51,0,0,0-12.48,1.82c-1.87,2.07-2.8,4.88-2.8,8.41q0,5.76,2.94,8.83c2,2.06,4.74,3.08,8.35,3.08a9.86,9.86,0,0,0,9.8-7.35H322.72v-7h20.46v9.63a19.71,19.71,0,0,1-3.64,6.56,18.94,18.94,0,0,1-6.42,4.9,20.33,20.33,0,0,1-8.92,1.88,21.2,21.2,0,0,1-10.66-2.59,17.86,17.86,0,0,1-7-7.27,24.15,24.15,0,0,1,0-21.32,17.85,17.85,0,0,1,7-7.27,21,21,0,0,1,10.58-2.59Q331.67,665.12,336.57,668.82Z"/><path class="cls-2" d="M785.65,192.14c-4.16,0-8.65-1.37-13.33-4.07l-78-45c-14.24-8.22-25.82-28.29-25.82-44.73C668.52,87,674,80,682.74,80a23.23,23.23,0,0,1,11.48,3.51,39.48,39.48,0,0,1,3.43,2.25l.19.14v-.23c.79-13.39,8-21.7,18.76-21.7,4.74,0,9.85,1.56,15.18,4.64,15,8.63,28.39,27.94,32.7,47l0,.08.07,0a32.24,32.24,0,0,1,7.61,3.26c16.54,9.54,30,32.84,30,51.93,0,10.68-4.19,18.17-11.5,20.55A16.2,16.2,0,0,1,785.65,192.14Z"/><path class="cls-9" d="M716.61,63.82v.25h0c4.72,0,9.81,1.55,15.12,4.62,14.92,8.61,28.34,27.89,32.64,46.88l0,.15.14,0a32.37,32.37,0,0,1,7.58,3.24c16.5,9.53,29.92,32.78,29.92,51.83,0,10.63-4.15,18.07-11.4,20.43a16.35,16.35,0,0,1-5,.76c-4.14,0-8.61-1.37-13.27-4.06l-78-45c-14.21-8.2-25.77-28.22-25.77-44.62,0-11.24,5.4-18.22,14.1-18.22a23.09,23.09,0,0,1,11.42,3.49,39.19,39.19,0,0,1,3.42,2.24l.37.27,0-.46c.78-13.31,7.92-21.57,18.63-21.57v-.25m0,0c-10.59,0-18.06,7.95-18.88,21.81a39.18,39.18,0,0,0-3.45-2.26,23.42,23.42,0,0,0-11.54-3.52c-8.5,0-14.35,6.77-14.35,18.47,0,16.48,11.62,36.6,25.89,44.84l78,45c4.81,2.77,9.35,4.09,13.39,4.09a16.07,16.07,0,0,0,5.07-.78c7-2.28,11.58-9.56,11.58-20.66,0-19.13-13.48-42.48-30-52a32.18,32.18,0,0,0-7.64-3.27c-4.24-18.71-17.32-38.13-32.76-47-5.48-3.16-10.66-4.66-15.25-4.65Z"/><polygon class="cls-2" points="754.8 209.52 727.9 133.7 680.08 80.09 707.76 66.07 799.18 184.41 754.8 209.52"/><path class="cls-2" d="M751.93,211.52c-4.45,0-9.21-1.44-14.14-4.29l-78-45c-14.69-8.48-26.64-29.18-26.64-46.14,0-12.13,6.22-20,15.85-20a24.85,24.85,0,0,1,12.29,3.73c.47.27.95.57,1.43.87,1.21-9.59,5.83-16.55,12.92-19.31a13.88,13.88,0,0,1,5.86-2.63L709,64.83a19,19,0,0,1,9.55-2.41c5,0,10.4,1.63,16,4.85,15.32,8.85,28.6,27.71,33.27,47.15a35.08,35.08,0,0,1,7.13,3.17c17,9.8,30.79,33.73,30.79,53.34a28.67,28.67,0,0,1-3.3,14.3v0a16.62,16.62,0,0,1-9.3,7.76,17.88,17.88,0,0,1-5.49.84l-25.79,14.6a16.56,16.56,0,0,1-3,1.67l-1.41.8a1.51,1.51,0,0,1-.74.19,1.6,1.6,0,0,1-.53-.09h0A18.72,18.72,0,0,1,751.93,211.52Z"/><path class="cls-9" d="M718.57,63.92c4.58,0,9.76,1.5,15.23,4.65,15.44,8.92,28.52,28.34,32.76,47.05a32.18,32.18,0,0,1,7.64,3.27c16.56,9.56,30,32.91,30,52,0,5.52-1.12,10.09-3.12,13.58h0a15,15,0,0,1-8.46,7.08,16.07,16.07,0,0,1-5.07.77h-.34L761,207.19a13.65,13.65,0,0,1-2.81,1.59l-1.48.84-.1-.26a16.4,16.4,0,0,1-4.71.66c-4,0-8.58-1.31-13.39-4.09l-78-45c-14.28-8.24-25.89-28.35-25.89-44.84,0-11.7,5.85-18.47,14.35-18.47a23.39,23.39,0,0,1,11.54,3.53,40.43,40.43,0,0,1,3.44,2.25c.64-10.81,5.34-18,12.4-20.67A12.69,12.69,0,0,1,682,80.19l27.68-14a17.61,17.61,0,0,1,8.87-2.25m0-3a20.67,20.67,0,0,0-10.29,2.6L681,77.33a15.28,15.28,0,0,0-6.1,2.74c-6.95,2.79-11.65,9.28-13.32,18.2A26,26,0,0,0,649,94.6a15.91,15.91,0,0,0-12.71,6c-3,3.79-4.64,9.15-4.64,15.49,0,17.44,12.28,38.72,27.39,47.44l78,45c5.16,3,10.17,4.49,14.89,4.49a19.93,19.93,0,0,0,4.26-.45,3.31,3.31,0,0,0,.55.05,2.94,2.94,0,0,0,1.47-.39l1.35-.76a17.08,17.08,0,0,0,3.09-1.75L788,195.36a19.31,19.31,0,0,0,5.55-.91,18.06,18.06,0,0,0,10.11-8.4l.06-.1c2.31-4.07,3.48-9.12,3.48-15,0-20.09-14.15-44.6-31.54-54.64a37.79,37.79,0,0,0-6.63-3C764.15,93.73,750.74,74.89,735.3,66c-5.81-3.35-11.44-5-16.73-5Z"/><path class="cls-34" d="M696.2,86.13c15.44,8.91,28.52,28.34,32.76,47a32.42,32.42,0,0,1,7.64,3.27c16.57,9.57,30,32.91,30,52s-13.48,26.92-30,17.35l-78-45c-14.28-8.24-25.89-28.35-25.89-44.84S644.35,92.79,658.63,101a40.43,40.43,0,0,1,3.44,2.25C663.25,83.41,678.11,75.68,696.2,86.13Z"/><path d="M683.1,114.91l-1.87,7.38-1.15-.66-1.69-7.89-1.7,5.93-1.15-.67-1.87-9.54,1.05.61,1.4,8,1.74-6.19,1,.61,1.73,8.16,1.42-6.34Z"/><path d="M685.15,117v2.89l2.79,1.61v.84l-2.79-1.61v3l3.1,1.78v.89l-4-2.33v-8.46l4,2.33v.89Z"/><path d="M694.14,126.11a3.44,3.44,0,0,1,.42,1.59c0,.69-.21,1.13-.61,1.31a2.08,2.08,0,0,1-1.76-.39L689.47,127v-8.46l2.68,1.55a4.88,4.88,0,0,1,1.67,1.53,3.45,3.45,0,0,1,.57,1.88,1.32,1.32,0,0,1-.38,1.1,1,1,0,0,1-1,.09A4.28,4.28,0,0,1,694.14,126.11Zm-3.73-3.27,1.58.91a1.25,1.25,0,0,0,1.07.24c.24-.1.36-.38.36-.83a2.31,2.31,0,0,0-.36-1.23,3.05,3.05,0,0,0-1.11-1l-1.54-.89Zm2.76,5c.27-.1.41-.39.41-.87a2.44,2.44,0,0,0-.42-1.36,3.28,3.28,0,0,0-1.17-1.07l-1.58-.92v3l1.6.92A1.41,1.41,0,0,0,693.17,127.87Z"/><path d="M700.13,132.12a.92.92,0,0,1-.76.4,2.36,2.36,0,0,1-1.26-.4,5.21,5.21,0,0,1-1.29-1.05,5.68,5.68,0,0,1-.91-1.36,4.42,4.42,0,0,1-.39-1.45l1,.58a2.81,2.81,0,0,0,.21.83,3.87,3.87,0,0,0,.52.86,3.08,3.08,0,0,0,.82.7c.42.24.73.29,1,.16a.83.83,0,0,0,.33-.79,2.16,2.16,0,0,0-.23-1,4.12,4.12,0,0,0-.58-.85c-.23-.25-.54-.57-.94-.94s-.83-.82-1.11-1.14a4.39,4.39,0,0,1-.72-1.12,3.23,3.23,0,0,1-.3-1.4,1.56,1.56,0,0,1,.28-1,.87.87,0,0,1,.79-.32,2.69,2.69,0,0,1,1.21.42,5,5,0,0,1,1.71,1.6,4.31,4.31,0,0,1,.74,2l-1-.58a3.05,3.05,0,0,0-.44-1.15,2.82,2.82,0,0,0-1-.95,1.07,1.07,0,0,0-.92-.19c-.22.1-.34.35-.34.77a2.08,2.08,0,0,0,.22.92,4,4,0,0,0,.56.81c.22.24.53.55.92.91s.85.84,1.13,1.17a4.67,4.67,0,0,1,.74,1.14,3.51,3.51,0,0,1,.3,1.47A1.76,1.76,0,0,1,700.13,132.12Z"/><path d="M702.59,126.16v8.46l-1-.54v-8.46Z"/><path d="M708.6,129.63v.89l-2.07-1.2v7.58l-.95-.55v-7.57l-2.07-1.2v-.88Z"/><path d="M710.48,131.6v2.9l2.78,1.6v.84l-2.78-1.6v2.95l3.09,1.79V141l-4-2.33v-8.46l4,2.33v.89Z"/><path d="M719.18,143.12a.92.92,0,0,1-.76.4,2.36,2.36,0,0,1-1.26-.4,5.21,5.21,0,0,1-1.29-1.05,5.73,5.73,0,0,1-.91-1.37,4.3,4.3,0,0,1-.39-1.44l1,.58a2.89,2.89,0,0,0,.21.83,3.72,3.72,0,0,0,.52.86,2.87,2.87,0,0,0,.82.69c.41.24.73.3,1,.17a.84.84,0,0,0,.33-.79,2.12,2.12,0,0,0-.24-1,3.89,3.89,0,0,0-.57-.84c-.23-.25-.54-.57-.94-.94s-.83-.82-1.12-1.14a4.37,4.37,0,0,1-.71-1.12,3.27,3.27,0,0,1-.3-1.41,1.53,1.53,0,0,1,.28-1,.9.9,0,0,1,.79-.33,2.86,2.86,0,0,1,1.21.43,4.94,4.94,0,0,1,1.71,1.59,4.51,4.51,0,0,1,.74,2l-1-.59a2.88,2.88,0,0,0-.45-1.14,2.73,2.73,0,0,0-1-1,1.05,1.05,0,0,0-.92-.18c-.23.09-.34.35-.34.77a2,2,0,0,0,.22.92,3.71,3.71,0,0,0,.56.8c.22.25.53.55.91.92s.85.84,1.14,1.16a4.61,4.61,0,0,1,.73,1.15,3.52,3.52,0,0,1,.31,1.47A1.76,1.76,0,0,1,719.18,143.12Z"/><path class="cls-35" d="M689.73,149.5c0,4.48-3,6-6.75,3.88a14.65,14.65,0,0,1-6.75-11.68c0-4.5,3-6,6.75-3.87A14.59,14.59,0,0,1,689.73,149.5Zm-3-1.7a8.54,8.54,0,0,0-3.8-6.91c-2-1.18-3.8-.28-3.8,2.52a8.55,8.55,0,0,0,3.8,6.9C685,151.49,686.78,150.56,686.78,147.8Z"/><path class="cls-36" d="M704.3,157.91c0,4.48-3,6-6.75,3.88a14.65,14.65,0,0,1-6.75-11.67c0-4.51,3-6,6.75-3.88A14.6,14.6,0,0,1,704.3,157.91Zm-2.95-1.7a8.54,8.54,0,0,0-3.8-6.91c-2-1.17-3.8-.27-3.8,2.52a8.59,8.59,0,0,0,3.8,6.91C699.59,159.9,701.35,159,701.35,156.21Z"/><path class="cls-37" d="M718.27,158.67v14c0,5.74-2.93,6.39-6.4,4.39a14.36,14.36,0,0,1-6-8l2.58.25a8.37,8.37,0,0,0,3.39,4.72c2.21,1.28,3.59.49,3.59-2.48v-1.12l-.1-.06c-.67.56-1.94.65-3.55-.28-3.37-1.94-6.45-7.11-6.45-11.47s3.08-6,6.45-4.08a9.72,9.72,0,0,1,3.55,3.79l.1.06v-1.27l2.81,1.63Zm-2.6,5.83a8.33,8.33,0,0,0-3.59-6.81c-2-1.18-3.75-.16-3.75,2.57a8.52,8.52,0,0,0,3.75,6.85C714.09,168.27,715.67,167.21,715.67,164.5Z"/><path class="cls-38" d="M722.9,153.16V176L720,174.28V151.5Z"/><path class="cls-35" d="M734.13,177.7l2.3,3.09c-.74.83-2.53,2-5.61.2a14.46,14.46,0,0,1-6.68-11.63c0-4.62,2.88-6.11,6.35-4.11s5.2,6.22,5.76,8.28l.31,1.06-9-.9a7.49,7.49,0,0,0,3.26,4.24c1.5.87,2.55.62,3.31-.23Zm-7.06-6.88,6,.59a5.69,5.69,0,0,0-2.5-3.09C729.09,167.45,727,167.78,727.07,170.82Z"/><path class="cls-37" d="M665.31,133.38v-3.3l9.63,5.56a14.86,14.86,0,0,1,.14,2.07c0,2.48-.59,5.2-2.48,6.29s-4.18,1-7.29-.83c-5.76-3.32-10.6-11.54-10.6-18.19s4.84-9.28,10.6-6a20.44,20.44,0,0,1,7.17,7.46l-2,1.17a14.81,14.81,0,0,0-5.15-5.33c-4.21-2.43-7.5-.42-7.5,4.44a16.54,16.54,0,0,0,7.5,13.1c2.73,1.58,4.28,1.21,5.28.64.81-.47,1.34-1.49,1.55-3.19Z"/><path d="M953.94,445.39v8.46l-.94-.55v-8.46Z"/><path d="M961.16,458l-.95-.54-3.8-8.88v6.68l-.95-.55v-8.46l.95.55,3.8,8.89V449l.95.54Z"/><path d="M967.16,453v.89l-2.06-1.2v7.58l-1-.55v-7.57l-2.07-1.2v-.88Z"/><path d="M969,455v2.9l2.79,1.6v.84l-2.79-1.6v2.95l3.1,1.79v.88l-4-2.33v-8.46l4,2.33v.89Z"/><path d="M977.24,467.3l-1.91-4.56-1-.59v3.45l-.94-.54V456.6l2.41,1.39a5.08,5.08,0,0,1,1.87,1.77,4.28,4.28,0,0,1,.62,2.19,1.54,1.54,0,0,1-.5,1.37,1.5,1.5,0,0,1-1.44-.05l2,4.65Zm-2.94-5.95,1.38.8c1.08.62,1.62.39,1.62-.7a2.84,2.84,0,0,0-1.62-2.56l-1.38-.8Z"/><path d="M985.11,471.84l-.94-.54-3.81-8.88v6.68l-.94-.55v-8.46l.94.55,3.81,8.89v-6.69l.94.54Z"/><path d="M990.92,473.24l-3.22-1.86-.62,1.6-1-.59,2.71-6.73,1.07.61,2.7,9.87-1-.59Zm-.27-1-1.34-5L988,470.68Z"/><path d="M994.45,476.38l2.6,1.5v.86l-3.54-2.05v-8.46l.94.55Z"/><path d="M961.42,471.48a.92.92,0,0,1-.76.41,2.33,2.33,0,0,1-1.25-.41,5,5,0,0,1-1.3-1.05,5.18,5.18,0,0,1-.9-1.36,4,4,0,0,1-.39-1.44l1,.58a2.75,2.75,0,0,0,.21.82,3.29,3.29,0,0,0,.52.87,2.83,2.83,0,0,0,.81.69c.42.24.74.3,1,.17a.84.84,0,0,0,.33-.79,2.08,2.08,0,0,0-.23-1,4.34,4.34,0,0,0-.58-.84c-.23-.26-.54-.57-.93-.94s-.84-.83-1.12-1.15a4.62,4.62,0,0,1-.72-1.11,3.45,3.45,0,0,1-.29-1.41,1.59,1.59,0,0,1,.27-1,.93.93,0,0,1,.79-.33,2.92,2.92,0,0,1,1.21.42,5.09,5.09,0,0,1,1.72,1.6,4.37,4.37,0,0,1,.73,2l-1-.59a3.26,3.26,0,0,0-.45-1.15,2.74,2.74,0,0,0-1-.95,1,1,0,0,0-.91-.18c-.23.09-.34.35-.34.76a2,2,0,0,0,.22.93,3.67,3.67,0,0,0,.55.8c.23.25.53.55.92.92s.85.83,1.14,1.16a4.91,4.91,0,0,1,.73,1.15,3.5,3.5,0,0,1,.3,1.46A1.66,1.66,0,0,1,961.42,471.48Z"/><path d="M963.83,465.5v5.07a4.32,4.32,0,0,0,.48,2.12,3.52,3.52,0,0,0,1.32,1.36c.55.32,1,.37,1.3.15s.47-.74.47-1.57v-5.08l.94.55v5.08c0,1.15-.24,1.87-.74,2.17a2,2,0,0,1-2-.28,5.41,5.41,0,0,1-2-2,6,6,0,0,1-.74-3V465Z"/><path d="M974.48,476.47a3.48,3.48,0,0,1,.42,1.6c0,.69-.2,1.12-.61,1.3a2.08,2.08,0,0,1-1.76-.39l-2.72-1.57V469l2.68,1.55a4.76,4.76,0,0,1,1.67,1.52,3.47,3.47,0,0,1,.57,1.88,1.28,1.28,0,0,1-.38,1.1,1,1,0,0,1-1,.09A4.28,4.28,0,0,1,974.48,476.47Zm-3.73-3.27,1.58.91a1.31,1.31,0,0,0,1.07.25c.24-.11.37-.39.37-.84a2.18,2.18,0,0,0-.37-1.22,3.07,3.07,0,0,0-1.11-1l-1.54-.89Zm2.76,5c.28-.11.41-.4.41-.88a2.44,2.44,0,0,0-.42-1.35,3.4,3.4,0,0,0-1.17-1.08l-1.58-.91v3l1.6.92A1.47,1.47,0,0,0,973.51,478.24Z"/><path d="M981.78,484.32l-.95-.55-3.8-8.88v6.69l-.94-.55v-8.46l.94.55,3.8,8.89v-6.7l.95.55Z"/><path d="M984.24,478.17v2.89l2.79,1.61v.84l-2.79-1.61v3l3.1,1.79v.89l-4-2.34v-8.46l4,2.34V480Z"/><path d="M993.05,482.36v.89L991,482.06v7.57l-1-.55v-7.57L988,480.32v-.89Z"/><path d="M948.37,473.72v-1l2.1,1.22v8.46l-1-.58v-7.44Z"/><path d="M951.81,478.87a5,5,0,0,1,.58-2.83c.39-.53,1.06-.52,2,0a4.55,4.55,0,0,1,2,2.31,9.44,9.44,0,0,1,.59,3.49,5,5,0,0,1-.59,2.84c-.39.54-1.07.53-2,0a4.54,4.54,0,0,1-2-2.31A9.52,9.52,0,0,1,951.81,478.87Zm4.27,2.46a10.53,10.53,0,0,0-.13-1.8,4.23,4.23,0,0,0-.49-1.4,2.86,2.86,0,0,0-1.05-1c-.45-.26-.8-.32-1-.18a1.12,1.12,0,0,0-.49.82,8.2,8.2,0,0,0-.13,1.65,10.91,10.91,0,0,0,.13,1.83,4.09,4.09,0,0,0,.49,1.4,2.76,2.76,0,0,0,1,1c.46.27.81.33,1.05.19A1.2,1.2,0,0,0,956,483,8.29,8.29,0,0,0,956.08,481.33Z"/><path d="M959.05,486.05v1.28l-1.14-.66v-1.28Z"/><path d="M959.51,480.15v-1l2.1,1.22v8.46l-1-.58v-7.44Z"/><path d="M963,485.3a5,5,0,0,1,.58-2.83c.39-.53,1.06-.52,2,0a4.55,4.55,0,0,1,2,2.31,9.44,9.44,0,0,1,.59,3.49,5,5,0,0,1-.59,2.84c-.39.54-1.07.53-2,0a4.54,4.54,0,0,1-2-2.31A9.49,9.49,0,0,1,963,485.3Zm4.27,2.46a10.53,10.53,0,0,0-.13-1.8,4.31,4.31,0,0,0-.49-1.4,2.83,2.83,0,0,0-1.05-1c-.45-.26-.8-.33-1-.19a1.16,1.16,0,0,0-.5.82,9.19,9.19,0,0,0-.12,1.66,12.15,12.15,0,0,0,.12,1.82,4.24,4.24,0,0,0,.5,1.4,2.78,2.78,0,0,0,1,1c.46.26.8.32,1.05.18a1.2,1.2,0,0,0,.49-.84A8.22,8.22,0,0,0,967.22,487.76Z"/><path d="M970.19,492.48v1.28l-1.14-.66v-1.28Z"/><path d="M971.11,490a5,5,0,0,1,.58-2.83c.39-.53,1.06-.52,2,0a4.55,4.55,0,0,1,2,2.31,9.45,9.45,0,0,1,.58,3.49,5,5,0,0,1-.58,2.84c-.39.54-1.07.53-2,0a4.5,4.5,0,0,1-2-2.31A9.49,9.49,0,0,1,971.11,490Zm4.27,2.46a10.61,10.61,0,0,0-.13-1.8,4.31,4.31,0,0,0-.49-1.4,2.91,2.91,0,0,0-1-1c-.45-.27-.8-.33-1-.19a1.15,1.15,0,0,0-.5.82,9.06,9.06,0,0,0-.13,1.66,12,12,0,0,0,.13,1.82,4,4,0,0,0,.5,1.4,2.71,2.71,0,0,0,1,1q.67.39,1,.18a1.2,1.2,0,0,0,.49-.84A8.22,8.22,0,0,0,975.38,492.47Z"/><path d="M978.35,497.19v1.28l-1.14-.66v-1.28Z"/><path d="M979.27,494.72a5,5,0,0,1,.58-2.83q.58-.79,2,0a4.57,4.57,0,0,1,2,2.31,9.45,9.45,0,0,1,.58,3.49,5,5,0,0,1-.58,2.84c-.4.54-1.07.53-2,0a4.57,4.57,0,0,1-2-2.31A9.49,9.49,0,0,1,979.27,494.72Zm4.27,2.46a11.66,11.66,0,0,0-.13-1.8,4.1,4.1,0,0,0-.5-1.4,2.86,2.86,0,0,0-1-1c-.45-.26-.79-.32-1-.18a1.15,1.15,0,0,0-.49.82,8.25,8.25,0,0,0-.13,1.66,10.86,10.86,0,0,0,.13,1.82,4.23,4.23,0,0,0,.49,1.4,2.83,2.83,0,0,0,1,1c.46.27.81.33,1,.19a1.17,1.17,0,0,0,.5-.84A9,9,0,0,0,983.54,497.18Z"/><path d="M988.89,493.25,986,505l-.91-.52L988,492.72Z"/><path d="M992.19,502.91a2.24,2.24,0,0,0,1.06-1.9,2.94,2.94,0,0,0-.31-1.35,2.68,2.68,0,0,0-1-1c-.48-.28-.85-.31-1.1-.1a1.64,1.64,0,0,0-.41,1.23l-.94-.54c0-.91.3-1.49.76-1.74a1.82,1.82,0,0,1,1.77.26,4.57,4.57,0,0,1,1.63,1.58,4,4,0,0,1,.6,2.15,2.57,2.57,0,0,1-.54,1.64,3.59,3.59,0,0,1-1.34,1.06,5.47,5.47,0,0,1-1.65.48l3.72,2.15v.89l-5-2.91V504A7.42,7.42,0,0,0,992.19,502.91Z"/><path d="M995.14,506.22v-.91l3.77-3.49,1,.59V508l1.08.62v.95l-1.08-.63v1.95l-1-.55v-1.95Zm3.89-3-2.89,2.63,2.89,1.67Z"/><path class="cls-39" d="M1081.52,721.12s.1,6,3.38,7.78a6.71,6.71,0,0,0,6.3,0l52.56-30.6-11.14-6.46Z"/><polygon class="cls-40" points="1079.82 672.76 1091.57 666.16 1098.27 670.05 1130.92 651.31 1132.63 652.29 1131.81 692.21 1080 722.13 1079.82 672.76"/><polygon class="cls-39" points="1081.38 673.78 1091.42 668.02 1098.36 671.99 1132.63 652.29 1132.62 691.84 1080 722.13 1079.83 672.92 1081.38 673.78"/><path class="cls-40" d="M1091.2,726.9c0,7.94-11.37,2.3-11.37-6.67V672.76l1.56.9.14,47.46c0,5.75,7.83,10.65,8.2,5"/><polygon class="cls-41" points="1085.35 682.78 1085.35 722.29 1136.67 692.66 1136.67 653.15 1085.35 682.78"/><polygon class="cls-2" points="1086.92 684.36 1086.92 723.86 1138.24 694.23 1138.24 654.73 1086.92 684.36"/><polygon class="cls-40" points="1089.55 686.02 1103.6 677.71 1109.96 674.03 1141.98 655.5 1143.76 656.58 1143.76 698.3 1091.2 728.9 1089.72 728.09 1089.55 686.02"/><polygon class="cls-42" points="1091.16 686.87 1103.56 679.79 1109.92 676.12 1142.52 657.3 1143.76 656.58 1143.76 698.3 1091.2 728.9 1091.16 686.87"/><polygon class="cls-43" points="1093.31 696.46 1093.31 698.83 1107.18 691.02 1107.18 688.55 1093.31 696.46"/><polygon class="cls-43" points="1093.31 700.12 1093.31 702.48 1107.18 694.67 1107.18 692.21 1093.31 700.12"/><polygon class="cls-43" points="1093.31 703.67 1093.31 706.03 1107.18 698.23 1107.18 695.76 1093.31 703.67"/><path d="M954,622.19v8.46l-1-.55v-8.46Z"/><path d="M961.16,634.81l-.95-.55-3.8-8.88v6.69l-.95-.55v-8.46l.95.55,3.8,8.89v-6.7l.95.55Z"/><path d="M967.16,629.82v.89l-2.06-1.2v7.57l-1-.54V629l-2.07-1.2v-.89Z"/><path d="M969.05,631.79v2.89l2.78,1.61v.84l-2.78-1.61v3l3.09,1.78v.89l-4-2.33v-8.46l4,2.33v.89Z"/><path d="M977.24,644.1l-1.91-4.56-1-.6v3.46l-.94-.55v-8.46l2.41,1.4a5.08,5.08,0,0,1,1.87,1.77,4.18,4.18,0,0,1,.62,2.19,1.55,1.55,0,0,1-.5,1.37,1.5,1.5,0,0,1-1.44,0l2,4.65Zm-2.94-6,1.39.8c1.07.62,1.61.39,1.61-.7a2.84,2.84,0,0,0-1.61-2.56l-1.39-.8Z"/><path d="M985.11,648.64l-.94-.55-3.81-8.88v6.69l-.94-.55v-8.46l.94.55,3.81,8.89v-6.7l.94.55Z"/><path d="M990.92,650l-3.22-1.86-.61,1.6-1-.59,2.71-6.74,1.07.62,2.7,9.87-1-.59Zm-.27-1-1.34-5-1.34,3.5Z"/><path d="M994.45,653.18l2.6,1.5v.85l-3.54-2V645l.94.54Z"/><path d="M951.87,635.39v.89l-3.2-1.85v2.93l2.71,1.56v.85l-2.71-1.56V642l-.95-.54V633Z"/><path d="M953.94,636.58V645l-1-.54V636Z"/><path d="M956.4,645.61l2.6,1.5V648l-3.54-2v-8.46l.94.54Z"/><path d="M960.91,641.5v2.89L963.7,646v.84l-2.79-1.61v2.95L964,650v.89l-4-2.34v-8.46l4,2.34v.89Z"/><path d="M972.18,654.49a.92.92,0,0,1-.76.4,2.36,2.36,0,0,1-1.26-.4,5.4,5.4,0,0,1-1.29-1,5.68,5.68,0,0,1-.91-1.36,4.42,4.42,0,0,1-.39-1.45l1,.59a2.58,2.58,0,0,0,.22.82,3.53,3.53,0,0,0,.51.87,3.23,3.23,0,0,0,.82.69c.42.24.73.29,1,.17a.85.85,0,0,0,.33-.8,2.16,2.16,0,0,0-.23-1,3.8,3.8,0,0,0-.58-.84c-.23-.26-.54-.57-.94-.95s-.83-.82-1.11-1.14a4.82,4.82,0,0,1-.72-1.11,3.3,3.3,0,0,1-.3-1.41,1.62,1.62,0,0,1,.28-1,.9.9,0,0,1,.79-.32,2.69,2.69,0,0,1,1.21.42,5,5,0,0,1,1.71,1.6,4.35,4.35,0,0,1,.74,2l-1-.59a3.05,3.05,0,0,0-.44-1.15,2.91,2.91,0,0,0-1-1,1.1,1.1,0,0,0-.92-.19c-.22.1-.34.35-.34.77a2.12,2.12,0,0,0,.22.93,4,4,0,0,0,.56.8c.22.24.53.55.92.92a14.6,14.6,0,0,1,1.13,1.16,4.46,4.46,0,0,1,.74,1.15,3.47,3.47,0,0,1,.3,1.46A1.76,1.76,0,0,1,972.18,654.49Z"/><path d="M974.64,649.42v2.89l2.79,1.61v.84l-2.79-1.61v3l3.1,1.78v.89l-4-2.33V648l4,2.33v.89Z"/><path d="M982.84,661.73l-1.91-4.56-1-.6V660l-.95-.55V651l2.41,1.4a5,5,0,0,1,1.88,1.77,4.28,4.28,0,0,1,.62,2.19,1.58,1.58,0,0,1-.5,1.37,1.5,1.5,0,0,1-1.44,0l2,4.65Zm-2.94-6,1.38.8c1.08.62,1.61.39,1.61-.7a2.83,2.83,0,0,0-1.61-2.56l-1.38-.8Z"/><path d="M985.49,654.8l2.23,8.54L990,657.4l1,.59-2.69,6.91-1.2-.69-2.68-10Z"/><path d="M992.92,660v2.89l2.79,1.61v.84l-2.79-1.61v2.95l3.1,1.79v.89L992,667v-8.46l4,2.34v.88Z"/><path d="M1001.12,672.28l-1.91-4.56-1-.59v3.45l-.95-.54v-8.46l2.41,1.39a4.93,4.93,0,0,1,1.87,1.77,4.2,4.2,0,0,1,.63,2.19,1.56,1.56,0,0,1-.5,1.37,1.49,1.49,0,0,1-1.44,0l2,4.64Zm-2.94-5.94,1.38.79c1.08.62,1.61.39,1.61-.7a2.83,2.83,0,0,0-1.61-2.56l-1.38-.8Z"/><path d="M945.42,646.67v-1l2.1,1.22v8.46l-1-.58V647.3Z"/><path d="M948.86,651.81a5,5,0,0,1,.59-2.83c.38-.53,1.06-.52,2,0a4.5,4.5,0,0,1,2,2.31,9.44,9.44,0,0,1,.59,3.49,5,5,0,0,1-.59,2.84c-.39.54-1.06.53-2,0a4.48,4.48,0,0,1-2-2.31A9.48,9.48,0,0,1,948.86,651.81Zm4.28,2.46a11.76,11.76,0,0,0-.13-1.8,4.33,4.33,0,0,0-.5-1.4,2.86,2.86,0,0,0-1-1c-.45-.25-.79-.32-1-.18a1.17,1.17,0,0,0-.49.82,8.25,8.25,0,0,0-.13,1.66,10.86,10.86,0,0,0,.13,1.82,4.15,4.15,0,0,0,.49,1.4,2.68,2.68,0,0,0,1,1c.46.27.81.33,1,.19a1.2,1.2,0,0,0,.5-.84A9,9,0,0,0,953.14,654.27Z"/><path d="M956.11,659v1.28l-1.15-.66v-1.28Z"/><path d="M956.56,653.1v-1l2.1,1.21v8.46l-1-.58v-7.44Z"/><path d="M960,658.24a5,5,0,0,1,.59-2.83c.38-.53,1.06-.52,2,0a4.5,4.5,0,0,1,2,2.31,9.48,9.48,0,0,1,.59,3.49,5.08,5.08,0,0,1-.59,2.85c-.39.53-1.06.52-2,0a4.5,4.5,0,0,1-2-2.3A9.57,9.57,0,0,1,960,658.24Zm4.28,2.47a10.65,10.65,0,0,0-.14-1.81,4,4,0,0,0-.49-1.39,2.71,2.71,0,0,0-1-1c-.45-.26-.79-.32-1-.19a1.17,1.17,0,0,0-.49.83,8.07,8.07,0,0,0-.13,1.65,10.86,10.86,0,0,0,.13,1.82,4.29,4.29,0,0,0,.49,1.41,2.83,2.83,0,0,0,1,1q.69.39,1,.18a1.16,1.16,0,0,0,.49-.83A8.25,8.25,0,0,0,964.28,660.71Z"/><path d="M967.25,665.42v1.29l-1.15-.66v-1.29Z"/><path d="M970.83,665.22a2.24,2.24,0,0,0,1.06-1.91,3,3,0,0,0-.31-1.34,2.68,2.68,0,0,0-1-1c-.48-.28-.85-.31-1.1-.1a1.68,1.68,0,0,0-.42,1.23l-.93-.54c0-.91.3-1.49.76-1.74a1.8,1.8,0,0,1,1.76.26,4.6,4.6,0,0,1,1.64,1.58,4.06,4.06,0,0,1,.6,2.15,2.57,2.57,0,0,1-.54,1.64,3.59,3.59,0,0,1-1.34,1.06,5.47,5.47,0,0,1-1.65.48l3.72,2.14V670l-5-2.92v-.79A7.42,7.42,0,0,0,970.83,665.22Z"/><path d="M974.05,666.35a5,5,0,0,1,.59-2.83c.38-.53,1.06-.52,2,0a4.58,4.58,0,0,1,2,2.31,9.5,9.5,0,0,1,.59,3.5,5,5,0,0,1-.59,2.84c-.39.53-1.06.52-2,0a4.5,4.5,0,0,1-2-2.3A9.57,9.57,0,0,1,974.05,666.35Zm4.28,2.47a11.9,11.9,0,0,0-.13-1.81,4.19,4.19,0,0,0-.5-1.39,2.71,2.71,0,0,0-1.05-1c-.45-.26-.79-.32-1-.19a1.17,1.17,0,0,0-.49.83,8.07,8.07,0,0,0-.13,1.65,10.78,10.78,0,0,0,.13,1.82,4.29,4.29,0,0,0,.49,1.41,2.83,2.83,0,0,0,1,1q.69.39,1.05.18a1.18,1.18,0,0,0,.5-.83A9.18,9.18,0,0,0,978.33,668.82Z"/><path d="M981.3,673.53v1.29l-1.15-.66v-1.29Z"/><path d="M982.21,671.06a5.13,5.13,0,0,1,.58-2.83c.39-.53,1.06-.52,2,0a4.58,4.58,0,0,1,2,2.31,9.5,9.5,0,0,1,.59,3.5,5,5,0,0,1-.59,2.84c-.39.53-1.06.52-2,0a4.52,4.52,0,0,1-2-2.3A9.79,9.79,0,0,1,982.21,671.06Zm4.27,2.47a10.74,10.74,0,0,0-.13-1.81,4,4,0,0,0-.49-1.39,2.71,2.71,0,0,0-1.05-1c-.45-.26-.8-.32-1-.19a1.14,1.14,0,0,0-.49.83,8.07,8.07,0,0,0-.13,1.65,10.78,10.78,0,0,0,.13,1.82,4.07,4.07,0,0,0,.49,1.41,2.76,2.76,0,0,0,1,1q.69.39,1.05.18a1.14,1.14,0,0,0,.49-.83A8.35,8.35,0,0,0,986.48,673.53Z"/><path d="M991.84,669.6,989,681.31l-.92-.53,2.84-11.72Z"/><path d="M995.14,679.25a2.23,2.23,0,0,0,1.06-1.9,2.91,2.91,0,0,0-.32-1.34,2.46,2.46,0,0,0-1-1c-.49-.28-.85-.32-1.1-.1a1.68,1.68,0,0,0-.42,1.23l-.93-.54c0-.92.3-1.5.75-1.74a1.81,1.81,0,0,1,1.77.25,4.58,4.58,0,0,1,1.63,1.58,4,4,0,0,1,.61,2.15,2.55,2.55,0,0,1-.54,1.64,3.67,3.67,0,0,1-1.34,1.06,5,5,0,0,1-1.66.48l3.72,2.15v.9l-5-2.91v-.79A7.64,7.64,0,0,0,995.14,679.25Z"/><path d="M998.09,682.57v-.91l3.76-3.5,1,.59v5.63l1.08.62v1l-1.08-.62v1.94l-1-.55v-1.94Zm3.89-3-2.89,2.63,2.89,1.66Z"/><path class="cls-2" d="M590.87,580.85a.48.48,0,0,1-.26-.07l-17.9-10.7a.5.5,0,0,1-.21-.61l2.88-7.61a.39.39,0,0,1,.1-.16l6.07-6.52a.49.49,0,0,1,.37-.16.5.5,0,0,1,.24.06l17.51,10a.52.52,0,0,1,.25.44v9.87a.52.52,0,0,1-.25.44l-8.55,4.93A.47.47,0,0,1,590.87,580.85Z"/><path class="cls-9" d="M581.92,555.52l17.5,10v9.87l-8.55,4.94L573,569.65l2.87-7.61,6.08-6.52m0-1a1,1,0,0,0-.74.32l-6.07,6.52a.94.94,0,0,0-.2.33l-2.88,7.6a1,1,0,0,0,.42,1.22l17.9,10.7a1.07,1.07,0,0,0,.52.14,1,1,0,0,0,.5-.13l8.55-4.94a1,1,0,0,0,.5-.87v-9.87a1,1,0,0,0-.5-.87l-17.51-10a1,1,0,0,0-.49-.13Z"/><polygon class="cls-2" points="573.12 569.59 575.91 562.22 590.74 570.55 590.74 580.13 573.12 569.59"/><path class="cls-9" d="M576,562.4l14.65,8.22v9.29l-17.35-10.37,2.7-7.14m-.13-.36L573,569.65l17.9,10.7v-9.88l-15-8.43Z"/><polygon class="cls-10" points="590.99 570.55 599.29 565.75 599.29 575.34 590.99 580.13 590.99 570.55"/><path class="cls-9" d="M599.17,566v9.3l-8,4.65v-9.3l8-4.65m.25-.43-8.55,4.93v9.88l8.55-4.94v-9.87Z"/><polygon class="cls-2" points="576.03 562 581.39 555.36 599.17 565.54 590.87 570.33 576.03 562"/><path class="cls-9" d="M581.42,555.52l17.5,10-8.06,4.65L576.22,562l5.2-6.45m-.06-.32L575.84,562l15,8.43,8.55-4.93L581.36,555.2Z"/><polygon class="cls-44" points="690.01 605.02 670.22 638.64 254.61 394.63 272.98 366.65 690.01 605.02"/><path class="cls-45" d="M680,639.94c-8.47,4.89-15.34.92-15.34-8.86s6.87-21.68,15.34-26.57,15.34-.92,15.34,8.86"/><path class="cls-44" d="M263.64,399.54c-8.93,5.17-16.16,1-16.15-9.32s7.27-22.87,16.19-28,16.16-1,16.15,9.32"/><ellipse class="cls-44" cx="680.03" cy="622.23" rx="21.69" ry="12.52" transform="translate(-198.85 900.03) rotate(-60)"/><path class="cls-2" d="M529,552.17a.48.48,0,0,1-.26-.07L353.54,450.4a.5.5,0,0,1-.25-.43V433.23a.5.5,0,0,1,.25-.43l14.5-8.37a.45.45,0,0,1,.25-.07.47.47,0,0,1,.25.07L543.63,524.2a.49.49,0,0,1,.25.43v19a.51.51,0,0,1-.26.44l-14.35,8A.53.53,0,0,1,529,552.17Z"/><path class="cls-9" d="M368.29,424.86l175.09,99.77v19l-14.35,8L353.79,450V433.23l14.5-8.37m0-1a1,1,0,0,0-.5.13l-14.5,8.37a1,1,0,0,0-.5.87V450a1,1,0,0,0,.5.86l175.23,101.7a1,1,0,0,0,.51.14.94.94,0,0,0,.48-.13l14.36-8a1,1,0,0,0,.51-.88v-19a1,1,0,0,0-.51-.87L368.78,424a1,1,0,0,0-.49-.13Z"/><polygon class="cls-2" points="353.92 449.89 353.92 433.44 528.76 533.07 528.9 551.45 353.92 449.89"/><path class="cls-9" d="M354,433.66l174.59,99.49.14,18.08L354,449.82V433.66m-.25-.43V450L529,551.67,528.88,533,353.79,433.23Z"/><polygon class="cls-10" points="529.01 533.07 543.25 524.85 543.25 543.58 529.15 551.46 529.01 533.07"/><path class="cls-9" d="M543.13,525.06v18.45l-13.86,7.73-.14-18.1,14-8.08m.25-.43L528.88,533l.15,18.67,14.35-8v-19Z"/><polygon class="cls-2" points="354.05 433.23 368.29 425 543.13 524.63 528.88 532.86 354.05 433.23"/><path class="cls-9" d="M368.29,425.15l174.59,99.48-14,8.08L354.3,433.23l14-8.08m0-.29-14.5,8.37L528.88,533l14.5-8.37L368.29,424.86Z"/><path class="cls-32" d="M377.52,456.94v4.2L375,459.7v-12l4.07,2.35a7.59,7.59,0,0,1,2.81,2.69,6.49,6.49,0,0,1,1,3.41,3,3,0,0,1-.43,1.74,1.46,1.46,0,0,1-1.28.63,4.18,4.18,0,0,1-2.07-.69Zm2.79-2.25a2.7,2.7,0,0,0-1.51-2.45l-1.28-.74v3.12l1.28.74C379.81,455.94,380.31,455.72,380.31,454.69Z"/><path class="cls-32" d="M389.42,468l-2.24-5.82-.57-.34v4.53l-2.51-1.45V453l4.28,2.47a8.19,8.19,0,0,1,2.09,1.7,7.1,7.1,0,0,1,1.27,2.08,6,6,0,0,1,.43,2.21,2.37,2.37,0,0,1-.63,1.86,1.83,1.83,0,0,1-1.81.2l2.47,6.14Zm-2.81-8.14,1.55.9c.5.29.87.37,1.1.25s.35-.42.35-.92a2.7,2.7,0,0,0-.35-1.33,3,3,0,0,0-1.1-1l-1.55-.9Z"/><path class="cls-32" d="M395.94,459.8v12l-2.51-1.45v-12Z"/><path class="cls-32" d="M399.61,461.92l2.54,10.48,2.54-7.55,2.68,1.55-3.61,9.9-3.24-1.88-3.6-14.06Z"/><path class="cls-32" d="M414.77,480.46l-3.89-2.24-.64,1.81-2.65-1.52,3.81-9.71,2.89,1.67,3.8,14.1L415.42,483Zm-.65-2.57-1.29-5.15-1.3,3.65Z"/><path class="cls-32" d="M426.51,477.45v2.3l-2.82-1.62v9.67l-2.52-1.45v-9.68l-2.79-1.61v-2.31Z"/><path class="cls-32" d="M430.08,481.81v2.51l3.51,2v2.19l-3.51-2v2.66l3.95,2.28v2.32L427.57,490v-12l6.46,3.73v2.3Z"/><path class="cls-32" d="M445.84,488.61v2.3L443,489.29V499l-2.52-1.45v-9.68l-2.79-1.61v-2.31Z"/><path class="cls-32" d="M452.22,504.28,450,498.45l-.57-.33v4.53l-2.51-1.45v-12l4.28,2.47a8,8,0,0,1,2.09,1.7,7.1,7.1,0,0,1,1.27,2.08,6,6,0,0,1,.43,2.2,2.41,2.41,0,0,1-.62,1.86,1.84,1.84,0,0,1-1.82.21l2.47,6.14Zm-2.81-8.14,1.55.9c.5.29.87.37,1.1.25s.36-.42.36-.92a2.58,2.58,0,0,0-.36-1.33,2.89,2.89,0,0,0-1.1-1l-1.55-.9Z"/><path class="cls-32" d="M462.66,508.11l-3.89-2.24-.64,1.81-2.65-1.52,3.81-9.71,2.89,1.67,3.8,14.09-2.67-1.54Zm-.65-2.57-1.29-5.15-1.3,3.65Z"/><path class="cls-32" d="M473.71,504.7V507l-4.25-2.45v2.62l3.28,1.9v2.2l-3.28-1.89v4.84L467,512.77v-12Z"/><path class="cls-32" d="M481.77,509.35v2.31l-4.26-2.46v2.62l3.29,1.9v2.21l-3.29-1.9v4.85L475,517.43v-12Z"/><path class="cls-32" d="M485.57,511.55v12l-2.51-1.45v-12Z"/><path class="cls-32" d="M495.32,518.26a10.64,10.64,0,0,1,1.68,4.22L494.35,521a6,6,0,0,0-.9-1.82,4.62,4.62,0,0,0-1.45-1.31,1.49,1.49,0,0,0-1.78-.1,2.6,2.6,0,0,0-.67,2.1,6.23,6.23,0,0,0,.67,2.88,4.7,4.7,0,0,0,1.78,1.95,2.15,2.15,0,0,0,1.45.36,1.27,1.27,0,0,0,.9-.77l2.65,1.53a2.76,2.76,0,0,1-1.68,2.28,4,4,0,0,1-3.28-.68,9.52,9.52,0,0,1-2.65-2.31,10.55,10.55,0,0,1-1.77-3.18,10.36,10.36,0,0,1-.63-3.53,5.37,5.37,0,0,1,.63-2.81,2.2,2.2,0,0,1,1.77-1.14,4.59,4.59,0,0,1,2.65.76A9.81,9.81,0,0,1,495.32,518.26Z"/><polygon class="cls-8" points="833.64 787.1 884.96 787.84 979.05 733.52 875.1 673.45 833.64 787.1"/><polygon class="cls-26" points="832.73 786.03 906.14 742.67 906.21 673.58 726.73 569.91 652.47 612.78 653.85 682.94 763.55 747.85 832.73 786.03 832.73 786.03 797.08 721.3 832.73 786.03"/><polygon class="cls-2" points="652.72 612.78 726.73 570.05 905.96 673.58 832.87 715.76 652.72 612.78"/><path class="cls-9" d="M726.73,570.2l179,103.37-72.84,42L653,612.78l73.76-42.58m0-.29-74.26,42.87L832.87,715.9l73.34-42.33L726.73,569.91Z"/><polygon class="cls-10" points="833 715.98 906.08 673.79 906.01 742.6 832.86 785.81 833 715.98"/><path class="cls-9" d="M906,674l-.07,68.52L833,785.6l.14-69.55L906,674m.25-.44L832.87,715.9,832.73,786l73.41-43.36.07-69.1Z"/><polyline class="cls-27" points="832.73 786.03 832.87 716.03 652.47 612.78 655.13 683.68 832.73 786.03"/><path class="cls-46" d="M707.06,692.8l-3.12-1.8-.58,1.51-1-.57,2.58-6.72,1.08.62,2.58,9.7-1-.57Zm-1.56-5.95-1.3,3.43,2.59,1.49Z"/><path class="cls-46" d="M715.06,690.89a7.41,7.41,0,0,1,3.31,4.42l-1.12-.65a4.92,4.92,0,0,0-2.19-2.82c-1.5-.87-2.62-.26-2.62,1.77a5.66,5.66,0,0,0,2.62,4.79c1,.6,1.8.48,2.19-.28l1.12.65c-.53,1.28-1.76,1.46-3.31.56a7.7,7.7,0,0,1-3.58-6.27C711.48,690.58,713.06,689.73,715.06,690.89Z"/><path class="cls-46" d="M725.07,696.67a7.46,7.46,0,0,1,3.32,4.42l-1.12-.65a4.9,4.9,0,0,0-2.2-2.82c-1.5-.87-2.62-.26-2.62,1.77a5.66,5.66,0,0,0,2.62,4.79c1,.6,1.81.48,2.2-.28l1.12.65c-.54,1.28-1.77,1.46-3.32.56a7.69,7.69,0,0,1-3.57-6.27C721.5,696.36,723.07,695.51,725.07,696.67Z"/><path class="cls-46" d="M735.71,703.8l-2.92-1.69v2.77l2.61,1.5v.89l-2.61-1.5v2.84l2.92,1.69v.88L731.86,709v-8.28l3.85,2.23Z"/><path class="cls-46" d="M741.48,714.6a4.74,4.74,0,0,1-2.47-3.72l1,.58a2.9,2.9,0,0,0,1.48,2.23c.9.52,1.44.23,1.44-.55,0-2.23-3.87-3-3.87-6.11,0-1.36,1-1.74,2.37-.92a4.7,4.7,0,0,1,2.37,3.49l-1-.59a2.88,2.88,0,0,0-1.38-2c-.77-.47-1.38-.35-1.38.53,0,2.14,3.86,3,3.86,6.1C743.86,714.81,743,715.49,741.48,714.6Z"/><path class="cls-46" d="M749.59,719.28a4.76,4.76,0,0,1-2.47-3.71l1,.57a2.94,2.94,0,0,0,1.48,2.23c.91.52,1.44.24,1.44-.55,0-2.22-3.87-3-3.87-6.11,0-1.36,1-1.73,2.37-.92a4.67,4.67,0,0,1,2.37,3.5l-1-.6a2.9,2.9,0,0,0-1.39-2c-.77-.46-1.38-.35-1.38.54,0,2.13,3.87,3,3.87,6.09C752,719.5,751.14,720.18,749.59,719.28Z"/><path class="cls-46" d="M762.53,726.75a4.74,4.74,0,0,1-2.47-3.71l1,.57a2.93,2.93,0,0,0,1.48,2.23c.91.52,1.44.24,1.44-.54,0-2.23-3.87-3-3.87-6.12,0-1.36.95-1.73,2.37-.92a4.67,4.67,0,0,1,2.37,3.5l-1-.6a2.89,2.89,0,0,0-1.39-2c-.77-.47-1.38-.36-1.38.53,0,2.13,3.86,3,3.86,6.09C764.91,727,764.08,727.65,762.53,726.75Z"/><path class="cls-46" d="M772.23,724.88l-2.92-1.68V726l2.61,1.51v.88l-2.61-1.5v2.84l2.92,1.69v.89L768.38,730v-8.27l3.85,2.22Z"/><path class="cls-46" d="M778,727.36a4.6,4.6,0,0,1,2.48,3.86c0,1.06-.5,1.78-1.7,1.39l1.8,4.5-1.12-.64-1.71-4.37-1.13-.65v3.38l-.93-.54V726Zm0,.89-1.38-.8v3.13l1.38.8c1.06.61,1.52.21,1.52-.71A2.72,2.72,0,0,0,778,728.25Z"/><path class="cls-46" d="M789,733.68l1,.57-2.7,6.7-1.08-.62-2.7-9.82,1,.57,2.25,8.43Z"/><path class="cls-46" d="M796.93,739.15,794,737.46v2.77l2.61,1.5v.89L794,741.11V744l2.91,1.68v.89l-3.85-2.22V736l3.85,2.23Z"/><path class="cls-46" d="M802.75,741.62a4.63,4.63,0,0,1,2.48,3.87c0,1.06-.5,1.77-1.7,1.39l1.79,4.5-1.12-.65-1.7-4.36-1.13-.65v3.37l-.93-.54v-8.26Zm0,.89-1.38-.79v3.13l1.38.79c1,.61,1.52.22,1.52-.71A2.75,2.75,0,0,0,802.75,742.51Z"/><path id="Fill-1-2" data-name="Fill-1" class="cls-46" d="M684.41,659.3a8.93,8.93,0,0,0-4.13-7c-2.31-1.34-4.13-.32-4.13,2.25a8.84,8.84,0,0,0,2.67,5.86L677.2,669l3,1.76,3,1.77-1.57-10.45c1.57.21,2.68-.76,2.68-2.77"/><g id="Group-5-2" data-name="Group-5"><path id="Fill-3-2" data-name="Fill-3" class="cls-47" d="M693.36,664.4c0-8-5.84-17.92-13-22.07s-13-1-13,7c0,5.33,2.56,11.45,6.38,16.16l.83-5.74a15,15,0,0,1-2-6.91c0-4.78,3.47-6.65,7.75-4.18s7.75,8.36,7.75,13.13c0,2.27-.77,3.83-2,4.67l.83,6.7c3.91-.25,6.5-3.46,6.5-8.79"/></g><path id="Fill-6-2" data-name="Fill-6" class="cls-47" d="M710.8,679.8c2.62,1.52,4.73.37,4.73-2.53a10.29,10.29,0,0,0-4.73-8c-2.62-1.51-4.73-.36-4.73,2.54a10.27,10.27,0,0,0,4.73,8m0,4.28c-4.73-2.73-8.58-9.23-8.58-14.53s3.85-7.35,8.58-4.62,8.58,9.23,8.58,14.53-3.85,7.35-8.58,4.62"/><path id="Fill-8-2" data-name="Fill-8" class="cls-47" d="M721.18,671.51v18.07a.58.58,0,0,0,.28.49l3,1.76c.17.1.29,0,.29-.16v-7l3.27,1.89s4.56,2.37,4.56-3.12a10.54,10.54,0,0,0-4.61-8.39l-6.59-3.81C721.29,671.18,721.18,671.25,721.18,671.51Zm6,5.88a5,5,0,0,1,2.4,4.27c0,2.9-2.4,1.52-2.4,1.52l-2.39-1.38v-5.6c0-.26.17-.1.17-.1Z"/><path id="Fill-10-2" data-name="Fill-10" class="cls-46" d="M779.55,705.21v18.07a.58.58,0,0,0,.28.49l3,1.76c.17.1.29,0,.29-.16v-7l3.27,1.89s4.56,2.37,4.56-3.12a10.46,10.46,0,0,0-4.61-8.36L779.8,705C779.72,704.92,779.55,705,779.55,705.21Zm6,5.88a5,5,0,0,1,2.4,4.27c0,2.9-2.4,1.52-2.4,1.52l-2.39-1.38v-5.6c0-.26.17-.1.17-.1Z"/><path id="Fill-12-2" data-name="Fill-12" class="cls-47" d="M734.56,697.27a.57.57,0,0,0,.27.49l11,6.37c.17.1.28,0,.28-.16v-2.64a.59.59,0,0,0-.28-.49l-7.47-4.31a.59.59,0,0,1-.28-.49v-4.15c0-.2.11-.26.28-.17l5,2.87c.17.1.29,0,.29-.17v-2.63a.58.58,0,0,0-.29-.49l-5-2.87a.58.58,0,0,1-.28-.49v-3.52c0-.2.11-.26.28-.17l7.47,4.32c.17.09.28,0,.28-.17v-2.63a.59.59,0,0,0-.28-.5l-11-6.36c-.17-.1-.29,0-.29.16v18.17h0v0Z"/><path id="Fill-14-2" data-name="Fill-14" class="cls-47" d="M760.11,693.59l-2.34-1.35c-.17-.09-.28,0-.28.17v11.22l-6-15L748.62,687a.21.21,0,0,0-.34.17V705.2a.6.6,0,0,0,.29.49L750.9,707c.17.1.29,0,.29-.17v-13L758,711.05l0,.09,2,1.16c.18.1.29,0,.29-.16V694a.5.5,0,0,0-.2-.45"/><path id="Fill-16-2" data-name="Fill-16" class="cls-46" d="M805.11,719.58l-2.33-1.35c-.18-.1-.29,0-.29.16v11.22l-6-15-2.9-1.67c-.23-.14-.35,0-.35.16v18a.6.6,0,0,0,.29.5l2.34,1.35c.17.09.28,0,.28-.17v-12.9L803,737.07l0,.08,2,1.17c.18.1.29,0,.29-.17v-18.1a.54.54,0,0,0-.26-.47"/><path id="Fill-18-2" data-name="Fill-18" class="cls-46" d="M771.2,718.49l5.95-14.63a.56.56,0,0,0-.28-.59l-2.68-1.55c-.11-.06-.23-.06-.29,0l-3.9,9.59-3.91-14.1a.62.62,0,0,0-.28-.36l-2.68-1.55c-.17-.1-.34,0-.28.26l6,21.54a.66.66,0,0,0,.28.36l1.8,1a.18.18,0,0,0,.26,0"/><path class="cls-46" d="M808.53,721.94c-.77-.44-1.39-.08-1.39.81a3.06,3.06,0,0,0,1.39,2.4c.76.45,1.39.09,1.39-.8A3.12,3.12,0,0,0,808.53,721.94Zm0,3a2.66,2.66,0,0,1-1.22-2.1c0-.78.54-1.09,1.22-.71a2.7,2.7,0,0,1,1.21,2.11C809.74,725,809.2,725.34,808.53,725Z"/><path class="cls-46" d="M808.53,722.71a1,1,0,0,1,.52.82c0,.2-.1.35-.33.29l.35.88-.34-.19-.32-.84-.14-.08v.65l-.29-.16v-1.69Zm0,.27-.25-.14v.5l.25.14c.16.09.23,0,.23-.12A.43.43,0,0,0,808.52,723Z"/></g></g></svg>